<mxfile host="app.diagrams.net" agent="Mozilla/5.0 (Windows NT 10.0; Win64; x64) AppleWebKit/537.36 (KHTML, like Gecko) Chrome/127.0.0.0 Safari/537.36" version="24.7.7">
  <diagram id="C5RBs43oDa-KdzZeNtuy" name="Page-1">
    <mxGraphModel dx="882" dy="612" grid="1" gridSize="10" guides="1" tooltips="1" connect="1" arrows="1" fold="1" page="1" pageScale="1" pageWidth="827" pageHeight="1169" math="0" shadow="0">
      <root>
        <mxCell id="WIyWlLk6GJQsqaUBKTNV-0" />
        <mxCell id="WIyWlLk6GJQsqaUBKTNV-1" parent="WIyWlLk6GJQsqaUBKTNV-0" />
        <mxCell id="_vkaZWKVOGhBpmIRZPq3-0" value="Openhab&lt;span style=&quot;background-color: initial;&quot;&gt;PersistenzGenerator&lt;/span&gt;" style="swimlane;fontStyle=0;childLayout=stackLayout;horizontal=1;startSize=26;fillColor=none;horizontalStack=0;resizeParent=1;resizeParentMax=0;resizeLast=0;collapsible=1;marginBottom=0;whiteSpace=wrap;html=1;" parent="WIyWlLk6GJQsqaUBKTNV-1" vertex="1" collapsed="1">
          <mxGeometry x="290" y="290" width="200" height="30" as="geometry">
            <mxRectangle x="400" y="360" width="200" height="106" as="alternateBounds" />
          </mxGeometry>
        </mxCell>
        <mxCell id="_vkaZWKVOGhBpmIRZPq3-1" value="+ field: type" style="text;strokeColor=none;fillColor=none;align=left;verticalAlign=top;spacingLeft=4;spacingRight=4;overflow=hidden;rotatable=0;points=[[0,0.5],[1,0.5]];portConstraint=eastwest;whiteSpace=wrap;html=1;" parent="_vkaZWKVOGhBpmIRZPq3-0" vertex="1">
          <mxGeometry y="26" width="200" height="22" as="geometry" />
        </mxCell>
        <mxCell id="_vkaZWKVOGhBpmIRZPq3-2" value="+ field: type" style="text;strokeColor=none;fillColor=none;align=left;verticalAlign=top;spacingLeft=4;spacingRight=4;overflow=hidden;rotatable=0;points=[[0,0.5],[1,0.5]];portConstraint=eastwest;whiteSpace=wrap;html=1;" parent="_vkaZWKVOGhBpmIRZPq3-0" vertex="1">
          <mxGeometry y="48" width="200" height="26" as="geometry" />
        </mxCell>
        <mxCell id="_vkaZWKVOGhBpmIRZPq3-3" value="+ field: type" style="text;strokeColor=none;fillColor=none;align=left;verticalAlign=top;spacingLeft=4;spacingRight=4;overflow=hidden;rotatable=0;points=[[0,0.5],[1,0.5]];portConstraint=eastwest;whiteSpace=wrap;html=1;" parent="_vkaZWKVOGhBpmIRZPq3-0" vertex="1">
          <mxGeometry y="74" width="200" height="32" as="geometry" />
        </mxCell>
        <mxCell id="_vkaZWKVOGhBpmIRZPq3-4" value="FileGenerator" style="swimlane;fontStyle=0;childLayout=stackLayout;horizontal=1;startSize=26;fillColor=none;horizontalStack=0;resizeParent=1;resizeParentMax=0;resizeLast=0;collapsible=1;marginBottom=0;whiteSpace=wrap;html=1;" parent="WIyWlLk6GJQsqaUBKTNV-1" vertex="1" collapsed="1">
          <mxGeometry x="280" y="130" width="200" height="30" as="geometry">
            <mxRectangle x="400" y="210" width="140" height="106" as="alternateBounds" />
          </mxGeometry>
        </mxCell>
        <mxCell id="_vkaZWKVOGhBpmIRZPq3-5" value="+ field: type" style="text;strokeColor=none;fillColor=none;align=left;verticalAlign=top;spacingLeft=4;spacingRight=4;overflow=hidden;rotatable=0;points=[[0,0.5],[1,0.5]];portConstraint=eastwest;whiteSpace=wrap;html=1;" parent="_vkaZWKVOGhBpmIRZPq3-4" vertex="1">
          <mxGeometry y="26" width="140" height="22" as="geometry" />
        </mxCell>
        <mxCell id="_vkaZWKVOGhBpmIRZPq3-6" value="+ field: type" style="text;strokeColor=none;fillColor=none;align=left;verticalAlign=top;spacingLeft=4;spacingRight=4;overflow=hidden;rotatable=0;points=[[0,0.5],[1,0.5]];portConstraint=eastwest;whiteSpace=wrap;html=1;" parent="_vkaZWKVOGhBpmIRZPq3-4" vertex="1">
          <mxGeometry y="48" width="140" height="26" as="geometry" />
        </mxCell>
        <mxCell id="_vkaZWKVOGhBpmIRZPq3-7" value="+ field: type" style="text;strokeColor=none;fillColor=none;align=left;verticalAlign=top;spacingLeft=4;spacingRight=4;overflow=hidden;rotatable=0;points=[[0,0.5],[1,0.5]];portConstraint=eastwest;whiteSpace=wrap;html=1;" parent="_vkaZWKVOGhBpmIRZPq3-4" vertex="1">
          <mxGeometry y="74" width="140" height="32" as="geometry" />
        </mxCell>
        <mxCell id="_vkaZWKVOGhBpmIRZPq3-8" value="OpenhabFileGenerator" style="swimlane;fontStyle=0;childLayout=stackLayout;horizontal=1;startSize=26;fillColor=none;horizontalStack=0;resizeParent=1;resizeParentMax=0;resizeLast=0;collapsible=1;marginBottom=0;whiteSpace=wrap;html=1;" parent="WIyWlLk6GJQsqaUBKTNV-1" vertex="1" collapsed="1">
          <mxGeometry x="400" y="210" width="200" height="30" as="geometry">
            <mxRectangle x="400" y="280" width="140" height="106" as="alternateBounds" />
          </mxGeometry>
        </mxCell>
        <mxCell id="_vkaZWKVOGhBpmIRZPq3-9" value="+ field: type" style="text;strokeColor=none;fillColor=none;align=left;verticalAlign=top;spacingLeft=4;spacingRight=4;overflow=hidden;rotatable=0;points=[[0,0.5],[1,0.5]];portConstraint=eastwest;whiteSpace=wrap;html=1;" parent="_vkaZWKVOGhBpmIRZPq3-8" vertex="1">
          <mxGeometry y="26" width="140" height="22" as="geometry" />
        </mxCell>
        <mxCell id="_vkaZWKVOGhBpmIRZPq3-10" value="+ field: type" style="text;strokeColor=none;fillColor=none;align=left;verticalAlign=top;spacingLeft=4;spacingRight=4;overflow=hidden;rotatable=0;points=[[0,0.5],[1,0.5]];portConstraint=eastwest;whiteSpace=wrap;html=1;" parent="_vkaZWKVOGhBpmIRZPq3-8" vertex="1">
          <mxGeometry y="48" width="140" height="26" as="geometry" />
        </mxCell>
        <mxCell id="_vkaZWKVOGhBpmIRZPq3-11" value="+ field: type" style="text;strokeColor=none;fillColor=none;align=left;verticalAlign=top;spacingLeft=4;spacingRight=4;overflow=hidden;rotatable=0;points=[[0,0.5],[1,0.5]];portConstraint=eastwest;whiteSpace=wrap;html=1;" parent="_vkaZWKVOGhBpmIRZPq3-8" vertex="1">
          <mxGeometry y="74" width="140" height="32" as="geometry" />
        </mxCell>
        <mxCell id="_vkaZWKVOGhBpmIRZPq3-13" value="OpenhabItemsGenerator" style="swimlane;fontStyle=0;childLayout=stackLayout;horizontal=1;startSize=26;fillColor=none;horizontalStack=0;resizeParent=1;resizeParentMax=0;resizeLast=0;collapsible=1;marginBottom=0;whiteSpace=wrap;html=1;" parent="WIyWlLk6GJQsqaUBKTNV-1" vertex="1">
          <mxGeometry x="30" y="290" width="210" height="270" as="geometry">
            <mxRectangle x="30" y="290" width="200" height="30" as="alternateBounds" />
          </mxGeometry>
        </mxCell>
        <mxCell id="_vkaZWKVOGhBpmIRZPq3-14" value="+ field: type" style="text;strokeColor=none;fillColor=none;align=left;verticalAlign=top;spacingLeft=4;spacingRight=4;overflow=hidden;rotatable=0;points=[[0,0.5],[1,0.5]];portConstraint=eastwest;whiteSpace=wrap;html=1;" parent="_vkaZWKVOGhBpmIRZPq3-13" vertex="1">
          <mxGeometry y="26" width="210" height="22" as="geometry" />
        </mxCell>
        <mxCell id="_vkaZWKVOGhBpmIRZPq3-15" value="+ field: type" style="text;strokeColor=none;fillColor=none;align=left;verticalAlign=top;spacingLeft=4;spacingRight=4;overflow=hidden;rotatable=0;points=[[0,0.5],[1,0.5]];portConstraint=eastwest;whiteSpace=wrap;html=1;" parent="_vkaZWKVOGhBpmIRZPq3-13" vertex="1">
          <mxGeometry y="48" width="210" height="26" as="geometry" />
        </mxCell>
        <mxCell id="_vkaZWKVOGhBpmIRZPq3-27" value="" style="line;strokeWidth=1;fillColor=none;align=left;verticalAlign=middle;spacingTop=-1;spacingLeft=3;spacingRight=3;rotatable=0;labelPosition=right;points=[];portConstraint=eastwest;strokeColor=inherit;" parent="_vkaZWKVOGhBpmIRZPq3-13" vertex="1">
          <mxGeometry y="74" width="210" height="8" as="geometry" />
        </mxCell>
        <mxCell id="_vkaZWKVOGhBpmIRZPq3-16" value="+ writeType() : void" style="text;strokeColor=none;fillColor=none;align=left;verticalAlign=top;spacingLeft=4;spacingRight=4;overflow=hidden;rotatable=0;points=[[0,0.5],[1,0.5]];portConstraint=eastwest;whiteSpace=wrap;html=1;" parent="_vkaZWKVOGhBpmIRZPq3-13" vertex="1">
          <mxGeometry y="82" width="210" height="32" as="geometry" />
        </mxCell>
        <mxCell id="_vkaZWKVOGhBpmIRZPq3-28" value="+ writeName() : void" style="text;strokeColor=none;fillColor=none;align=left;verticalAlign=top;spacingLeft=4;spacingRight=4;overflow=hidden;rotatable=0;points=[[0,0.5],[1,0.5]];portConstraint=eastwest;whiteSpace=wrap;html=1;" parent="_vkaZWKVOGhBpmIRZPq3-13" vertex="1">
          <mxGeometry y="114" width="210" height="26" as="geometry" />
        </mxCell>
        <mxCell id="_vkaZWKVOGhBpmIRZPq3-29" value="+ wirteLabel() : void" style="text;strokeColor=none;fillColor=none;align=left;verticalAlign=top;spacingLeft=4;spacingRight=4;overflow=hidden;rotatable=0;points=[[0,0.5],[1,0.5]];portConstraint=eastwest;whiteSpace=wrap;html=1;" parent="_vkaZWKVOGhBpmIRZPq3-13" vertex="1">
          <mxGeometry y="140" width="210" height="26" as="geometry" />
        </mxCell>
        <mxCell id="HRl2OaOUrPw1THYx6C_2-9" value="+ writeIcon() : void" style="text;strokeColor=none;fillColor=none;align=left;verticalAlign=top;spacingLeft=4;spacingRight=4;overflow=hidden;rotatable=0;points=[[0,0.5],[1,0.5]];portConstraint=eastwest;whiteSpace=wrap;html=1;" vertex="1" parent="_vkaZWKVOGhBpmIRZPq3-13">
          <mxGeometry y="166" width="210" height="26" as="geometry" />
        </mxCell>
        <mxCell id="HRl2OaOUrPw1THYx6C_2-10" value="+ writeGroup() : void" style="text;strokeColor=none;fillColor=none;align=left;verticalAlign=top;spacingLeft=4;spacingRight=4;overflow=hidden;rotatable=0;points=[[0,0.5],[1,0.5]];portConstraint=eastwest;whiteSpace=wrap;html=1;" vertex="1" parent="_vkaZWKVOGhBpmIRZPq3-13">
          <mxGeometry y="192" width="210" height="26" as="geometry" />
        </mxCell>
        <mxCell id="HRl2OaOUrPw1THYx6C_2-14" value="+ writeTag() : void" style="text;strokeColor=none;fillColor=none;align=left;verticalAlign=top;spacingLeft=4;spacingRight=4;overflow=hidden;rotatable=0;points=[[0,0.5],[1,0.5]];portConstraint=eastwest;whiteSpace=wrap;html=1;" vertex="1" parent="_vkaZWKVOGhBpmIRZPq3-13">
          <mxGeometry y="218" width="210" height="26" as="geometry" />
        </mxCell>
        <mxCell id="HRl2OaOUrPw1THYx6C_2-12" value="+ writeBindingConfiguration() : void" style="text;strokeColor=none;fillColor=none;align=left;verticalAlign=top;spacingLeft=4;spacingRight=4;overflow=hidden;rotatable=0;points=[[0,0.5],[1,0.5]];portConstraint=eastwest;whiteSpace=wrap;html=1;" vertex="1" parent="_vkaZWKVOGhBpmIRZPq3-13">
          <mxGeometry y="244" width="210" height="26" as="geometry" />
        </mxCell>
        <mxCell id="_vkaZWKVOGhBpmIRZPq3-17" value="OpenhabThingsGenerator" style="swimlane;fontStyle=0;childLayout=stackLayout;horizontal=1;startSize=26;fillColor=none;horizontalStack=0;resizeParent=1;resizeParentMax=0;resizeLast=0;collapsible=1;marginBottom=0;whiteSpace=wrap;html=1;" parent="WIyWlLk6GJQsqaUBKTNV-1" vertex="1" collapsed="1">
          <mxGeometry x="510" y="290" width="200" height="30" as="geometry">
            <mxRectangle x="400" y="360" width="200" height="106" as="alternateBounds" />
          </mxGeometry>
        </mxCell>
        <mxCell id="_vkaZWKVOGhBpmIRZPq3-18" value="+ field: type" style="text;strokeColor=none;fillColor=none;align=left;verticalAlign=top;spacingLeft=4;spacingRight=4;overflow=hidden;rotatable=0;points=[[0,0.5],[1,0.5]];portConstraint=eastwest;whiteSpace=wrap;html=1;" parent="_vkaZWKVOGhBpmIRZPq3-17" vertex="1">
          <mxGeometry y="26" width="200" height="22" as="geometry" />
        </mxCell>
        <mxCell id="_vkaZWKVOGhBpmIRZPq3-19" value="+ field: type" style="text;strokeColor=none;fillColor=none;align=left;verticalAlign=top;spacingLeft=4;spacingRight=4;overflow=hidden;rotatable=0;points=[[0,0.5],[1,0.5]];portConstraint=eastwest;whiteSpace=wrap;html=1;" parent="_vkaZWKVOGhBpmIRZPq3-17" vertex="1">
          <mxGeometry y="48" width="200" height="26" as="geometry" />
        </mxCell>
        <mxCell id="_vkaZWKVOGhBpmIRZPq3-20" value="+ field: type" style="text;strokeColor=none;fillColor=none;align=left;verticalAlign=top;spacingLeft=4;spacingRight=4;overflow=hidden;rotatable=0;points=[[0,0.5],[1,0.5]];portConstraint=eastwest;whiteSpace=wrap;html=1;" parent="_vkaZWKVOGhBpmIRZPq3-17" vertex="1">
          <mxGeometry y="74" width="200" height="32" as="geometry" />
        </mxCell>
        <mxCell id="_vkaZWKVOGhBpmIRZPq3-21" value="OpenhabMapGenerator" style="swimlane;fontStyle=0;childLayout=stackLayout;horizontal=1;startSize=26;fillColor=none;horizontalStack=0;resizeParent=1;resizeParentMax=0;resizeLast=0;collapsible=1;marginBottom=0;whiteSpace=wrap;html=1;" parent="WIyWlLk6GJQsqaUBKTNV-1" vertex="1" collapsed="1">
          <mxGeometry x="730" y="290" width="200" height="30" as="geometry">
            <mxRectangle x="400" y="360" width="200" height="106" as="alternateBounds" />
          </mxGeometry>
        </mxCell>
        <mxCell id="_vkaZWKVOGhBpmIRZPq3-22" value="+ field: type" style="text;strokeColor=none;fillColor=none;align=left;verticalAlign=top;spacingLeft=4;spacingRight=4;overflow=hidden;rotatable=0;points=[[0,0.5],[1,0.5]];portConstraint=eastwest;whiteSpace=wrap;html=1;" parent="_vkaZWKVOGhBpmIRZPq3-21" vertex="1">
          <mxGeometry y="26" width="200" height="22" as="geometry" />
        </mxCell>
        <mxCell id="_vkaZWKVOGhBpmIRZPq3-23" value="+ field: type" style="text;strokeColor=none;fillColor=none;align=left;verticalAlign=top;spacingLeft=4;spacingRight=4;overflow=hidden;rotatable=0;points=[[0,0.5],[1,0.5]];portConstraint=eastwest;whiteSpace=wrap;html=1;" parent="_vkaZWKVOGhBpmIRZPq3-21" vertex="1">
          <mxGeometry y="48" width="200" height="26" as="geometry" />
        </mxCell>
        <mxCell id="_vkaZWKVOGhBpmIRZPq3-24" value="+ field: type" style="text;strokeColor=none;fillColor=none;align=left;verticalAlign=top;spacingLeft=4;spacingRight=4;overflow=hidden;rotatable=0;points=[[0,0.5],[1,0.5]];portConstraint=eastwest;whiteSpace=wrap;html=1;" parent="_vkaZWKVOGhBpmIRZPq3-21" vertex="1">
          <mxGeometry y="74" width="200" height="32" as="geometry" />
        </mxCell>
        <mxCell id="HRl2OaOUrPw1THYx6C_2-11" value="" style="shape=image;verticalLabelPosition=bottom;labelBackgroundColor=default;verticalAlign=top;aspect=fixed;imageAspect=0;image=data:image/png,iVBORw0KGgoAAAANSUhEUgAABVwAAABnCAIAAABzZx4jAAAgAElEQVR4Ae2djU9UV/7/v3/OZB2/cXVA166sD1RarFAUpVu0ukR0ra10LcWyIlboInQlpWjBJ9zyU1YLqAi1fHEVKqAjLMTWGGoiJTGGxGSMiZOYDInJ/HLP0z333Dsz944zPN33xnTvDGfuPed1zvmcc973cz7nfzxeH/6BAAiAAAiAAAiAAAiAAAiAAAiAAAi4kMD/uLDMKDIIgAAIgAAIgAAIgAAIgAAIgAAIgIDH64MoAEcJEAABEAABEAABEAABEAABEAABEHApAYgCLq14SGIgAAIgAAIgAAIgAAIgAAIgAAIgAFEAogAIgAAIgAAIgAAIgAAIgAAIgAAIuJQARAGXVjz0MBAAARAAARAAARAAARAAARAAARCAKABRAARAAARAAARAAARAAARAAARAAARcSgCigEsrHnoYCIAACIAACIAACIAACIAACIAACEAUgCgAAiAAAiAAAiAAAiAAAiAAAiAAAi4lAFHApRUPPQwEQAAEQAAEQAAEQAAEQAAEQAAEIApAFAABEAABEAABEAABEAABEAABEAABlxKAKODSioceBgIgAAIgAAIgAAIgAAIgAAIgAAIQBSAKgAAIgAAIgAAIgAAIgAAIgAAIgIBLCUAUcGnFQw8DARAAARAAARAAARAAARAAARAAAYgCEAVAAARAAARAAARAAARAAARAAARAwKUEIAq4tOKhh4EACIAACIAACIAACIAACIAACIAARAGIAiAAAiAAAiAAAiAAAiAAAiAAAiDgUgIQBVxa8dDDQAAEQAAEQAAEQAAEQAAEQAAEQACiAEQBEAABEAABEAABEAABEAABEAABEHApAYgCLq146GEgAAIgAAIgAAIgAAIgAAIgAAIgAFEAogAIgAAIgAAIgAAIgAAIgAAIgAAIuJQARAGXVjz0MBAAARAAARAAARAAARAAARAAARCAKABRAARAAARAAARAAARAAARAAARAAARcSgCigEsrHnoYCIAACIAACIAACIAACIAACIAACEAUgCgAAiAAAiAAAiAAAiAAAiAAAiAAAi4lAFHApRUPPQwEQAAEQAAEQAAEQAAEQAAEQAAEIApAFAABEAABEAABEAABEAABEAABEAABlxKAKODSioceBgIgAAIgAAIgAAIgAAIgAAIgAAIQBSAKgAAIgAAIgAAIgAAIgAAIgAAIgIBLCUAUcGnFQw8DARAAARAAARAAARAAARAAARAAAYgCEAVAAARAAARAAARAAARAAARAAARAwKUEIAq4tOKhh4EACIAACIAACIAACIAACIAACIAARAGIAiAAAiAAAiAAAiAAAiAAAiAAAiDgUgIQBVxa8dDDQAAEQAAEQAAEQAAEQAAEQAAEQACiAEQBEAABEAABEAABEAABEAABEAABEHApAYgCLq146GEgAAIgAAIgAAIgAAIgAAIgAAIgAFEAogAIgAAIgAAIgAAIgAAIgAAIgAAIuJQARAGXVjz0MBAAARAAARAAARAAARAAARAAARCAKABRAARAAARAAARAAARAAARAAARAAARcSgCigEsrHnoYCIAACIAACIAACIAACIAACIAACEAUgCgAAiAAAiAAAiAAAiAAAiAAAiAAAi4lAFHApRUPPQwEQAAEQAAEQAAEQAAEQAAEQAAEIApAFAABEAABEAABEAABEAABdxLYfPD73qtHCxd73Vl8lBoEppdAalHTf3qbdqfNNhkCokDi2sHO7/pH1P9d+kfC7p9T1tTe2VpTkDXb2tC8yU/FZbX6Rvq+K0jkGJlf0Xn/yfOpsPhfaCr4y7l5AjBzd01Ld/vpypxEErPffT5s6jNV3+UjEdg6Smw/D0g5HwjYtwNr20+W3zlZfufohh1awVddoB/r8/6mckhtPEpS0gTkvz1Fqa/fUw6Xa7dNyK3UzGRs6JFyqxXz5CeNGRE6lFreuZFsZ9GnpFzl3+drGd62Zy/92FGwQKXh83iTaTQwebAAPjcbVcyC/OOKaaDqb9qZmMLat13GHrr54Pdk9urvqtiQmJwY7497ggAIGAjsO3eX2AF7ukAyjYbSVSEKGOpJoePsIx/X/YN3xb8LXyTo/l8NB+lKMjTRXpige8YcvVyWgA2ow3r1+a81bE0YhKL2CUkOELrARIezZpaw/CS2Fe1uf8RKF7xTNxMlKqy/JlXcMLG3EUUBR4kTCwp3m+0E7NuB9O/psrk8nfRKvvJnGoHcC5bUVZX01bN/g3NCFHjznQ6e4b76A/NSFNhR9ImhXPkFskagWtpkGg1MHlTas91KyL3b2fUXrWJ+6B+k+kCiRQFnc5i0Xad7HaxP3FNTKCkIJJHA5orLRBfwX6nIjmXukmk0FPM1raLA0j+W1n78w826oZGTo9q/E6P+2p5Le6oLfh+LSBIrJnGPZuP6lYpk5PbKBF9FBv1fRcvz9hODY5PBUGC4JhnZsH3PWZINpblH/0gXA/2nP4yeLL6/br82SWsw+EvrAebukb+ztKyuqjK+Gyb5V5XtoxOB4NT4lWiNTcpDnZ+pVuHwLJA52LouoihgKJSjxFKRDTfB9/OGgH07wF0DYosCMhymHSTk9X4SPQXk5s28BmJ5CqxKP1O+p6dh62H5t9N+vTb7nebKvX3V1H1DJq9ec9cAXq7oooChIAk2GrNj8qDysT3c44dxEmD1nmBRwNEcZvFu6uJ699I/NsdZinnSTvIrOieCr8g0bRbMYeZhXaSkHvvnm5M9G0K3N2n/BrInm1ce22iwq/Ow1FF6R2pR000ix/1fQ16UZMqfEm00FObTJQos3HLw0wGmBVBFQP5vWbWSrTn5ManjemadP6BZq9Cjjp1KEzF+rBkii7PgDIsCsyQbjhqS/cWAo9uSxFldj8lg87Q3evU5v3OSTGrHOMmvbVHAt/PKROhVOPzqmb925ne4OJqyO0o8ayooSfWO2/rs2wHuGlC2ihjhRXXVZI9A+dqUaBjnryjAFtUFMysKsPf/Fv4aps7LMrz32zfJn3K33tKcOD49lWlKqVZogo3G7Jg8xCw1EiSYQKLn9/ZtFytIamkz3Tfw/UEXRxPIKm4efvKSzHjofyAKGJcVr9/s12xN+603l8kBVBRg0sA7/QnaO/P6mZyBO+w8TWWB7uPb7T490UZDee70iAKbK8q4d0Bd34XC6n2rtmz8w5aNq0orCluu1oyOQBRIXA+cJavxWZINpblH/+h4QHVQa+xFenBoRlzr1RltdA7kr45FARv3jCMbcf7E0ZTdUeJZVUxkJhkE7NsBdXlP39vfYY4DkfKm/sqBGTF1h9nlKTBXRQGuYth0iNBqIcFG47VEgc3LW/vzzxRFam/4PskE0pac6d3SWmkVh8LUYZXOnuj5vX3bRZnkHe/R3lT6r1RkxMqqkvP58jGnqnv8OZMDgo8myKu3WeHtmORGO83VvfTGD8Q7oGft5d0p73p9npSUqqqMANUFelZXzZfm5LzW0nb9i8pytvtgoo2GkufpEAXydvRQH4H+zyo3LrRoi0t/v1rJ1pz8+FrjugWW+CDMktX4LMmGI4ZOB1QnN4cokLAWbge7oym7o8R2no40c5qAfTvAXAPERgCIAmRPPl9jT2uX15ucA08B5hrAMzwHRYHUotU9d3eNjuwa7V//+fwKAzlX1gm7v9ui8R/Z0dOwJNVhm0/0/N6+7dL6S2rlBb+mCdxstP2Wcq5Uit187mYunKFJf3NZupe9C5kNWyB1g2a3LA7b3vTeds3O1b+1pR0y+tB9Xv8O8R3IdrWzQMaRS466YaKNhtLSki8KLKy8cJxEEDjSaG/XRPUlbWfBQNNqn2fhlo+3t3V/zQIQ9H/ZdiTN4vyGpX8sbyzr89OnnBwdqe+7+nHtriVqyoI9ZP+C2SthdXO/eCLvJzRx/54PPd7VBe+3dddyT4evf2jK3mLtZ+VUFMguXfcfbSz5y+VvFkUaS/RQAsK1aaKdZ1KvSxGGUKQyX1htKMip6h57GtS8vsn/Qs8n73XWGKPH09XsRLu36OzoMy3Vq6knfXXp3iyx/yr4oJW5xDvKRtkgFWVDow16QUTRMlvHSK6kv1J7rRU/veTcrQme7VdTwUfdFXmWBjGruHlwXET7fzUVfDpxSzP9lokduA2zDG/7ZuOAVoN//n+lsd4S2BAFaF1bVJPVS3uaWHNyM5YxFBxXa1AqbF5N+9BE8CWPd/hqKjh5v6uKRN4mTNpF5ArWIiz+z7ihgJVLThfdGyK9oK7rwbNgiP8iFAw8Gmwp0/NA2VJRidwqv6LzYYAHLAgF6eAtFcqqNh2t8x0ltmirxgwofYqXk/6/HBCEViv5JrOs8YZexuDTh12V5i0Y+QdatMZs7K112zMVFKxGjNWkpbHS6Whikoe8GrlegpPDZ0uUPJgSU7uhtSJzYp/Hm7W9tsP/YFJvb+FwKPhs7EZTsSHPhENwuCaz5jqNxPkqONZS5PEWnR2aJM2EGhylmMZmH6trx6w1OYGzibWx9uX7RLq24SmwdNHfCvPaqz7pa2BnFgw2lHSXbziUodoZyVNg4UeF73fV0YiAB25Vb60yJaZZTVn1p2Ple/mdD9yq23Phr3+KsbEz2mqZR1ukMRet/8tX3VIl2snGziJ2HEDXXxcpnNfnFxBX//LuolRtoslyqB7xQAMHsv/a2VAg5VB5ovFjYo2Gx+nkgWZmU2U2GYB2/bd3XYlpQ7jNyYOhXFnFJ3oNU4Lgs/GBc8YOSxE5MkeShYlmNOaqhVlQcj7/v9pMYNdA6/JN6swzkh3Qvk/0/N6R7VrMQpp3HYnlJmCYcRmHtHA4LI018uiTX9E2LGZfoecTt85aOLPYnA94kjY7Sm95GNAnkGyuNVOiwLsFaT93Zr8YIC/VZR977Tqrn5xxQ5rTijHxDd2of2MjWV1vDHS+eXmrhRF7N++NG23vvPiJOvDnhnrf+e1MWlW6mrKqMUu7z8UVaqPdsZq81ZfzsKy/h+dqxbLLzesC7OYbA5dWn4oxoPDnsttuGpvZHWcGG8jzNo1fspMI+s9/bOehiTYaSl0nXRRY/F4HcRMYaH7LJmsuCqwvba4mcoAcfaC+o8Kwfk7btaPHf8KUTIti2NeYbrDOcYgC/pIz9ZVcDpCy0b3dSlh1OK4vOdNPBH5tLNn0z/VKxbCPNsd1R6tx1uyyavqesaXZq6nQS2mx8XSwRp+1Uys/cb2HxckjI8JE19n7YlkXDofHWsj6wVk2uEb78n6dqSfwsHzPbpWJZkPt9TN/z0O+QpRGp9DDs3qe6U+KWn7lCUOGAgZ/5SqG8bmOBlSPN+2Pl8k8gLylWbdX5JNf2KEhD6jxDHu9ehklGJbx/3eevR/g6o+UNhyWZIhkiwI7Wx6yQD6GHITD4anxK4YZAxcFum895RKG/pOp8bbd1v2FV6ijKbujxFGfG7FPadFAXk6FXk7equLNg72UCPrPnrvHfBb1EoZDE+0fiZQ+T2bdrUkzB5I+MCz1Vp/HK0/LpDtEEwXCYwODAbk/04y8enZd733izkF/p1Vi86koUdp/YFAKg8pEgeu/SAUMDp81GBzZDvg8XsddO2qtGSgJz3BHwboc3T+2KMA8DiwW2CUX3jPoAlwUWPttNZUD5FVxSXOumrH17229yW5bqp2G0MB/Vbf1gGkiyHuTWHLzgHwGYvGIArazsfBweSlZ0u/9Vn4NviL9+3qtpLfK09fTzLhOFPjd3tOb75IB6HbXym2GqQ6rdJuTB1HLmTXXH0t9ULJG0qqP0HZsjmwaDS4KzEULs+2bjbdJddztSd9r2/U10fN7J3OYNDbwXftmjWgDVhfaqM0bgzaKySMFmVmNXRQGgY8+nZZtKajEG7I/H4hHFAgMXxczQJ5/bSB+cC7SayHPjHoKVH297gUVAgY2vOjNeTEgduDnah97193YJjhzUWDf8uEfRDIuJfyUcZFZRZZev7MiNAyo+/mdiwIbf65fOfkTf7S4/8C6a++L3Ea+gChAe9yn54mvgL2Ao4k2GsokIemiwP7PyKK6rmWflblRckM+UlFgyF+vLfX9Bxv3/XG1x5u25u3mm2Tx3/9xsfjVmtwOP1mr+yub969Yr73AX7h+16aWbvLbkfqOiiV6c4xDFGCREWs7jqzNWer1Lf5DeXMNdVv44Yh0Z5afZIgCMjQ2xlt5CkjJrN4H6hAEuu1tE8S2B8faxMHyWcXN96n1l97PMysffhUOTXQXZ1beoguYV+Hw8+G6vKyWXzVzG/qlSdyZXtjJRnrLQ2qrmaagl4LrBY+7t+tfchFX+81UYIjG8M+vuEFfJ4alPGvlrblDihJ6duvEbj4G6ImfXLNYVToZUH2zQhSg+EKT12u1MqaXnLtHd8e9enhW56bRSK8VR1o+u9fWsJM4VqQXfFbXNjw+Ia/QRFNhtNXpoPG2xkpnTSWip4BYJQYnuuqKiENK/oHTveNsxiG/ReevtWkBA/epK0FOVe8TOiMJDBZHy4mzHb8JEwW480vwF/FuLb9ugElvpibHCNM5VujxYKPmLpG1/QSrKak9i+Mep56wZu9LL6hrH2V3Dj3qkLoJn5aZjo2w6pK8dxPOwUfddR9peRB2IGzogIbEgdHWA1or0vtUoK/M0B6+Gg48n/D3tNaV0rr2pRdUtvzCKluiQTgQuSo41JDDXYQUg/OkR++wcXRtQ8aitpzZIQqUlXR9ln0oZ0nOGzTnC9Zlvn2ZLIPv1OXJapEsH9yq2rD/zQUpPs+KDOvE3owN3ZoiUNr112XiHZGeuHLtWtH9lYtongISW5sxBRxlg6//7+jv+blSUL91v5JP8tHB9gGrn8dqHrS8CTMa9HHOJg9p/3u4dRtzWT/tS7NRitiTB/3E3OCj3sYv6KCZv7Oq6fqDZ/fa5EfEY46YIY9hNOa4hUkrziC+n7tG7+ZUb5H6hUzPeJ3o+b2TOUxpMzkQsft41KxmnhsjY27ocS/3x8wqvshkAmmQouViNRgKEXUp8LCdzExyyrrH6cAtDyhO5gPxiAJsdvTM31Kp+dPlCZ1i6t4xYy3oXZ5PMqc/0OD7Kye1FXVu4OzyfdzHvraeygS5v1WlGJsTFQU2kjf/uS/aVh0jM7oPPl5Dd+m/OLNcpP/gUAbRGnJfXFndvDVFE4BSUqoOrWEr+Z8yLkpm37koQOWA3MC/02rXaVT3FaezSAGX0j7QwVoDX3M4gzg4rLuxyTqBKMV8vzhyiZxCEKMzGgYLewpCrCowg022KLC+9jBZRR+s1V3umbu+9Hrf4NJPRYHRkZND3Ts+0X/l9TF9oeYMPzq+uJnsLPAfrF1vLPnidKYg3CzUX+nHJwr4Kxt3yXEQVpy5SWSI7g9M7/adjes+j53tA3K5Yo/rWr+ymvqb+1vDPRJqNTCgnoe3k76ge/Wwhb14F+P05HUyGeUvk6fundC8A9jjTDbUUTaMaw+fp7D3CTHoRrGA2+sw9S4WhWLCRPjl/UaBq7Db6g6aS3MjfSEZGDwgEvMLJwMqefqMbx8IU2lGoPB5TlAPDsMC2+PlUo7y/pkX3GwXhGSeOFGACz2ao7iUYa/P81EHmzH82srlG96uwlSK0tNvZy+QY0hjjqbsjhJbsWLZq6A61EvFaaXo+lPSmh91GH8r2vNUQNuPo5fxLBHaws+H2eGmx5hXzpNOgzOFx5vFellYfpHOOqy54qy6pOjdah4ODJC9QuHJ64UiY3ri8U55D87u69SLyGQEjOWl9zHT4Bxe3m/UGoZ4isHg6EpTXF3bKieiXOqFYzsg1Z2dB8X2FLC8YUrO+33akp6HyifZFqLAzdJV8tuhlPdoIP2Sf2WLLC2oqiRv10tX8Ukn+1NKdh5xH9h7jAbhV4FE9xQQ9/d4bYkCjrORkkm1DLZTgG8c2NsY4YyAeS4KrPad6S0kisC21sr/NThOmiuOfxNr8pDe/JCu2oJDBlskVS6/VVzmSPMFi200RN+3k5jnR+0sM2phUrcsb2UeoPlnin+n5s2U5xkUBTK+6dbWIXcv/N2UKznbbXRL4TM6/ePtIevsA7LsF4MU+4mowbDij1ncRwcUMXA7mw/EKQoEH7bIEipXnM0vsXi5+GBkayyLyk1maOP60HHit9/75imDcU69doWsuv+tuHFRUWBT6PaGya+XyY4ep86TfQQ/rj7EHrp8+Aa5Q1vaDmM21uykOwI2TdYv5cX3xSUKqHngkQLevibJDeIR0sXSG53EzaFz5efGvElpEgl5Ft+2sJEcQuD//mDsTCbaaChPTLYo8GHTUbL4l5f99kSB/o8MioDH62Or+qPNBbQBpdNYAEPNb5vbTVpFGXnukcaNvLXFIwocbTYoAtqtttQfIXf+3HSMolNRgGdMqZKIH2ON6/SHVlN/Ex+m0cozfp6G/Snor6XfMCsvJuVMFJhgLyfZ40w21FY2vD6x9ujS1x4+Nn7owgTNCbPXpqWRz9NMPQ6Cfu6bnU5ZyTKBoM0wTnYpS1MeUDo5bsMqRotaphmTnPl5GlZwwzKPJn412SWPeV6fJ5OqIVP3TvAK9fo8pSx8w5MeZVUppRF82IXVQ9U0ys+jlpFlLCy/8uUF5BKA5OCgtx+lmpjLg1XTlbLnaJ3vKLHIs/lCdA3lT3WjZP70tNe4YYwRNs/C9bKTErGPlo05k91EekvPasHQWuT7GBqYXmWyKqHln7eZcf0lYcTELIeTvZLDgtI29I8mSqKlUV8A/SkUI00v7E98XVupkegfZ6kowLfNG3z4qShwq3ytrAiQ6v5TC4lH0L1nCe8X1M9flgkEB7YFoP0D8Y3xIpGeAvFkY8ceGlxgb2Pu2nZSro6Chbxcxqz6PPNYFEjdktZOwwre3XzcvjH3sTVVWCzJ9P5I6TEhkglz6l9lwvGZo4hWzmA09L6vmKM5ZWFW+0707CCqzV86I4eLoq030fN7B7bL3qMZecOooTWPnE6iBIcUn0RWg+HH3erRy2zexVugw/lAPKKAeXbk9amCu2pD2GA0/TEFLl4kS3fTZv7aM9nau/TOlXsMWWWiQOCUQRHwePmqXsTz30l9B3KGP7Ho1BcvsjW58OOOQxQw58GziXk9jB2yeKgwJuxZhlgJ0dKLH87LCwezUHs9N25KyRYFChupv70sCkiNmy3dDX9lngKX3ovRPhb/+Qfi3t/B3qdJt/V4fVt39Wl/Pd62n38fjyhgyBjLj1WeyZ/mjiiQTg062+dM9ttrG57JP/q+QN/rzqy8WGMoc3Q2ZsQrCnj4ez/JZ4G91jZ5plF7rbwDJ+SFkPEVqyOWq2gFtLiPgwGVNyrbHU+f7kT8SRyigGmotn7Dz8bjGAtpY8bEUo0hNf7V8suoZWSLeQvs2p3564hbpcYaNLUrj6muLTPmwMJyMWjk8hHLW9n/knsKSB4rWjvhbhoRPAVEz4rwoCwWHtmMQrt5jZ9uGPn1HP+52mH591x5MbSZiImtGlLExJEmjp7M3TUtg/ceabEGmXkRsUv04ij9Wn2KtcFx2LUFBDsXybQDWvO25SmwYtUbVUXva7EG60v4P7r/30IUEMcfSHbJ9JTM3B4STWBQv6G4c+kg+ZPVfQixBIoCcWaDbxkg+dRDCVgZonkrCmQsZ4rAyBanBxAqSzKpnZD6ZZ0u8htUwXlmzNGcszCLTvXSiFE72iuj+Qsken7vwHbZfDQbmpXJA3fPjOApIDTciPbW4XwgHlHAMNIZ5xVWfyJZnTFRgHsKpB8z9E1+kl8ET4GY8fnWfPkW8c/PuGi4LaPBHvrT2lP8r3GIAlZ5YJqF1Z/Yo3mYgw1jh1MjNhKeKzckcDBltdlz46WXbFHAx5bQus+/GF20C6sFtl1RQHUcUBCwAIe6ZJBgUUDyQWBNdu6IAmLNTHddWf6XvyG0N0fXp/isfiOO4ko1efnoIsINslWf7BFN76ksHqSGxH4SHmtmX7K3kZYFY1/qbgXC4jgYUNVSSJmx/hPDGG2wTJooYPLci5lbn9WaMOavopYx+qzUtNRn7cfUrmazKMDzFraKKTA11qwE87cpu0Sl6vWxpq6DUjusaN5WXTJiYtEA4vVBkHaFWHZDPcNKv1azpIgC8XVtAcHORTLtgNaJTMt1U8/auWcvXaUbgueT9fCdk85EgVulf2IWifn2y5EI1WvJrcAIKoGiQNzZWPVOFyXQsP2Q7u9qzCchOW9FAZ9H9hQ4YcM7XQxG0c2v9xw96yfa8MRuNTPmyMp2zVoLk7aotusv88VTwFPINvdZxhQI9Cn7T2M0D723Rm+QpvlAgkUBySdRz5LWwmdMFPCwkHuWMQU2/KwGT4m96qblYot84TggDAK9YFv6dckgsaLA5NfWC36hCCh7H4x1YRoWlczPr48uEgXYG/uTPbXmyHyvJwqs+aBH8wU4oS/75SbFnlvbvIs3nQSLAmYngrkjCtjcmE14xpijR1q8WY/ivC7kmvKwPYos+gvztTZ4FVLroCweJJNhGkJY4ICIerD0WylLyVwM2BgskyYKcN9Rix0ThoqQUIjRMdZ7bJlk1DKKYAd8i4fh0fx1hNjTEald8YV3BI8DXgQHFjZxngIebxkLH0BO7tTejfPjHoKjTSbXepuiAN+xrzoaUPLMU0CazasdVnC26pIRE1s1gIiJre9MXRhCPM4TrxqTiqH0a/UpiigQX9cWEOxcJNMOaLUWQxRY+952etjezbK1u1dIZw1Yrcz56QOpHK8ooOkp2XkkJIFBUzD9SvzceGH1aIvf2okpEGc2Ur89qksYLvUUoF1ejynwl/ajCYopwDqdZEZkwy5fz4w5mjsWZvOciSmQ10BiCoxcqpDr13zNwwcQbVc+fSD0uNsUmMl2Q3I4H0iwKBBxZjhzooA39VonDdq3KWQ4fSA3cGa5KWKfXVHgg+q3Y3sK9Kyp4sY8saKApadA1fF3SJY2/Fa9VI6GYBxxzO1wfn+zpf7/tAgf/nOlsTnMdU8Bz1st/TQy3w495rHhZIMAABdhSURBVJ8o9ut4CnjebSNHDww0rTY3l/VHDpGd/4f101aYKGB6w7/+zz+Y7xNRQfCyKAn9ez4UpWAXc0cU0Dfhc397tSzcRoi4X2JxqMzRIy3erEZxczXRb1jUw7AWZ45dS8HJxa+UxYP43se2GYcn2vn+c/3dOP8mcgH1+yRzMWBjsKSigEnDFgcHiCrQyuJIQWADMD85Uq9cvewmPjaXrPIdopZR7FG/orww1+7AlCBp23ykdjWbRYEDNJbS84l7E0EhB2jnMzfLYfkEMbuE2TZIy3kM330jRWpgtSC94adPLGLbEAz3YYkNTYs2D5PQZjYFos1YdPYqdoaCMVaolpPXFAXi69oiq3YukmkHNAKm5bpoEuTiUBlZ/VZn5xu/jxJTwMrtn4UJ+D6fF5m/ade/Ue4f5WMCRYG4srGziMQUaCioyjUEHbQ0ZfPYU4CVVz99oPA/51Ozo1Qc/1P0F7NevtS3ir/L2w+7VXzmyGxhLIwGDzJqK/EstDBpxek9LOLDXDh94OAFcgzazZOFShXLH1kEytDk2INn4jjhUPDZWGcNOT+INzDWMqPOAeTe6nA+wCY8rzs7yhKjjxK0ghd5xkSBz79epy2Vf8wYbnvnxQBVBza++PGtG8WpVitnu6KAZ/9asgLP6t+h1JTP4025fInEFLiiHxPARIHOlSLKACWzg21DkO+zrL9Hy6fFyp95PciJ2dNrT5F4irc3jH1pWS5zJpP3Tdqa3QePVB/c9abVea5yW9Wuk5eYFpB1xu6jpgD2ak58njkvCng3swMITvQ1pav0X0sUWFh54bi28veXVZtPH6BKxNWtOmK2zpeiDHi8vqVvsXMKRk4axIVIosBipkT0Na4wNVanokByTh/gXgCTcug+bvJ4nnl8stBEhxoPRm2C6rLBpihgKxv8WSzc4KuHLfSQQjXEIM12JFGA79nWNAVeQLakCZvjG6koxE/4G2MHgQaTcfpA+JnYV68dJVjCz/LRozyQMjoSBXjQ3fBzU+R/qfhGMk30fApTZAdO2OKH0ScEvJrMefio+wl5oy4/aw6KAuyl/ZNOC9XDyFZuz2HzDFhJzE/unBq/ooQWE6cPyJ2d1UJYjzKgHRxYN8TOAgzbEgWyzv5Kz5SSD+lQTYHIp8X8XmgKLF4pazb6oZLxbh/gqpCzri2yaudihkUBdqBA+VpDGGrfos/20WB7hlf9kTwF8v+6R9t60LD1gN5hmRhx5+iGnfqXdoDYPn2AeQF8ekY/8sB8f8fZ4McNlH6frwUXZALByU9ORTh9YG1BIdl2UVjFDnQ05+H1v6GN5PUDkbCcOJ08eH2/23t6890RbeP67a6V29SZlVrAGKKAiPhrNjJqU4nPHJmtnIXRcCQKzDYLs6kye4BUx92e9L2rVf4WwyUBm+j5vRPbtf5IFzkG7Zr+5syc7fZHmoeADRcS2k6izwHktuRsPsC9HV9vdsTPDDZL1bzgtkWB1KL6a3c1fP85vcvmCSCR2oD2/dL+H7UF9m9fyoiiXNsWBVLe+Pkn7c4vLq4wnT5AYxAazjtkooAUZcDj9b27h510GDIEBYwoCpw6v0FTIn5YZTxTIPXUWaoIZP/8d+ttBbwW9IIv3t3QTQ7OvHmySD6KzpzS6Td59T2k9Y+M+K9UxNJVk5eYZXvv+X4tN/ZOGUy00VDQJT2mgPa81OpL9eS9/Ymh7o+rdy1bT2t3aWphfSX53uCKbzemgHYeAY0meHK0//Nv9q0gt/19zq5NbTdPkNvWnGHnFNDeyNbzozc/Kc/7vc+zcP2u9zv6aUrNl8FKFKhs1FKyzpy2MbuF3tn/WblFA3U4ri85w46u2TU6sumfunjBHyeeyy9ijevsh3w9HHo63MJOG+Z3kKwSG5LD4dDk/fa6z7RzXL0+T15RcV3rrQfPngzU8WyoKwGbooCYu0fPBnsKf+EZIgclyotDng2x3WtqrIUeoUwzLM6eVWIQ7GaScDisnbpcJU5K/6zidLd/Ijimx1TX4TgZUDXt8I+XySRA2z3Yv26vfh8pz+JLG4Ml185Dj3trCrI83vwDLcMBHvcx/DqigNfHXmJrw/vE9dPk2F6vL73gs7qWwfGJwRqpYfDMc009HBzvbNhJTsHlfxKFUi5ilHF72wQtTejp/fY6UiOZuw+cHnzCvp1ol06gmIOiACt+6PFgY1VZcWlZ8UfiJa0Cin606ymgvaKnrvjh4PiNpgNa2/DlfNTQ/oAe8hQO3hG9Vbsze5UXDt5rqczRarmu6xFXBLQGMCxVN8tzoE9Lyeo3s+zsKL2zEgeBJbY1v1cbc9b2L5quy9mIWxTwxtO1YzVdXnYCwaEdMPzWzoNieArsLy0la9q9/8pdpEnPSxfuzs/rqBfO8xaiQN9nq9bp2+wXFBQWkJ0C5V1/XSSq1evzrM0voBsTBo9uPZqzhP9kQU7GG1VFBd2lq+TEhmubngI+5p5wp257VeZCs25O7+koG+I8QmnLwKK6akKjvuCwclIXrQuW2/JbVRv2v7nAqK3YqSA7aWZcFNAyKRai/+1dV7I5WrZjTh74cfTh8NST0Y46Zrvyd1Y1dY1O3jMMl47MkROj4UgUmE0WZkHJ+fz/ksnAQOvyTbEEGrlnJXp+78h2rfmKqgI9tRkRjRibRz1/2F5HBrV90uxLLgi7ZtVtR0RwNB8Qp+E4mB29fNhCxkraL3Q9WnGHySvSBmv2jx2GHX7cy78p+1i6id7FKq6wJeXISH9zsf69BZOIbKVfsQX2i0urjm1L3bcpdd+66L+yLQp4fVX0sMPbuYF/rzy2NUXzO1iRUnvozUnqj/DjarF3QMsP8yzIDZx94/MVPk9KSlVVRuA29VzYZCkKTH699F1R6pTUU2fY7gBjHITU5vPkGIXb2WNfLtMKaPq3w2q8qGiTMMeYY0cnpvz1w6Y+ceeR6M4yHm/yErNcfdxMNIG+7wwrVkFVuUi00ZDaoZafaREFvL7Fad9crSMLdbKVgJwaIH2MVxTweDdXfD6k3o0+orbtoCrgbWenCcp5ODF06c+NVyOJAjTl8SF/3ZD/W5Zh/8Fvti5UWhj5mARRQKxsLWN1Gef3Iku72x+Rt3zKbwyLAZ8nUyynlXREGL5TwxuKOqjbFQW89rLBmjsPN6g9XFnei3JxEZfklwYzZ1l/9ezeWeUlqs/z0bl7AfZ38//xMIri5tqFowE18aKAl7+eNWY3MNR9j6zpDIsxR54CGuSilgfSylB+hNIwhAHi6pKcVtUmIqQRPzHk2ZtVc4etY0UCdhF6dqvW8IJ9DooCvpo7EQiHw6HnE/42xd/SvigQLaSWchy01m35+xAD5NBE1w1yiJShulnvpikNfSo89aSnRne90VqFagq4ibA81yBC93/17MkksU7xiwLxdG2RVTsXDu2AwYZEuD9fploFDtTWtwaX/gzmIa8k7isvvKZF2rMQBWhKeqwAXfbfOXng2r43TOcULvx0X+QQhmUGUYA54bPohkKSEBcFh60Kzs8OFMnohZLYfjZST9FQAvVbDaG2VrzdQTNm7fWw4FAZFVaM2Ti6wcKH1qoUwgZGvpgVooD2xqVoNXNZ71/3N0NZnE4e0mu5PmswHNoHoxl3ZI4cGQ1HiWeNhfnbd9tIWMEdPQ1L1DmnoUYsjEOi5/fObFdqJd1BEGVZK5bupkYR1jYR3GgqNuzQZDVoRxTwOJkPeOKYHdEcvzIcqhUO3D+rnOLM9DJz+dg31mXJOHpVLCpvnt4a2VBYVLpVYr50F8tvcaFtIug/tExfeGs/dyAKeLypF/+dQzYRiHvyixtrm9UxYumNTrKnQBcCNoVu54x9ufI37Rt5RwATMsidc1/05rzoFU/JMcULYBm2zgZ5lsU2BK+P61Ya61hL91h9zYCd7eGndXj1q+gvZZOXmOSZd8ObjRZb7C3aT6KNhvKIaRIFtKcuXL9rU/PV6iG/eDl/fKj/y46m90ult/E+j9eBpwApTNrG7DOXvhxgtz0x6q/tubC9eKPluv33Hx75vI8t708M3Sw7s/8PafyJVp4CIqsnR0e+Her/sq32rS0WPgK0tTkUBTw2tg84Hdd57eZXdD4MBI3SgGExQPtPVvGJ3rGn+v7ncGgqOHn/+mnptaFpJWBbFNCclu1lg2SGhRsMhx93m0Ky0dxyUYAHbwtrx5IFx4c6KiK+x86vaBsef67HewuHgoFHw+211mq3swHV6/MkdvuA1+fJLDs7NBnk3gHBpw+7qvKtF2OORQGfx5u1vbb73mQwxO+vVffEcLv2CEpY/W96yblb0vZ4OkgaJojORAHt/jlVJA+8EiPV4FwUBdJLOsaJq0s4ZJyI8PmGcTOLE1GAto2BCb1Tv5oKPn14/YRltAIN8vhz3v1DwfGBc9rUzaLNsDlcmFeHltNQMPCgt7HEoNGQFuJoyq7pUGcHJkRjDod4V6XZeB1RQGuuzrp2pBZu+b1jOxCh+0g3dyQK+Dwpb65trvqEL+9Le6reP5q9KIUFIzCIAvTkwsvVJX0NfAHcUNJdvuFQhhSh0NivV2SkN5bv7WugBxyW32ko6ana3pifmm5MFp8o4PV5NuZmt1eXGE9PUEQBjYyNbIhjCD/9l2k/At9TUC55EEjAfQsKPni/q44dtcjklfkoCmhtTwtul286pDCeyUNeZYtsZDRjYF74kXaSWXZWThnRHDkyGo4Szx4Lk7bkTO+W1sqIPS6KfUj0/N6p7So4TV5RjvTURvKgzmvw05crdHX9kg8rfFAzbkFlNWi9kLbiYHM+oHVtp7MjnkPt/19NWenypCXHJwp4feuru0hMhpERmy94rYovTNaajSvGesla/Sdtdf2id6Nx/ZwbaFwmBRdwJApoxdxXvGqsM1uPVtCz7ud/Lt9n6UW1Ytnlf7/zYoBIAwMbAm2rTm0UMoSVKEBTagv73FBv9mTzymNaeuVfnKKAx7v5yFWyTWNkxMHGXvXpSma0j4u3fXOJuuy3HVG2n5syn8TEmsM77YP+1v02JcVEGw2lvNMoCtioJyVzM/gxUkyBaFlyKgrMKSDRCp6IgrB4NuGpeyfMqxHapekiKkbY+dfJp9MB9XWehd8mlQCtSps7fh0ljphtfnRTcKhBd8UnXSOnrJXNq8IT7YnoLBHz4PjmEWfhiXuExXg8y28OOzDLK2g2ZC8xRkN0WEweBApXXSR6fu/YdqWyCGf+y5ZLI7ZVJDTRbfQIILvSJqhAYHG68wz3UAv5OwnDUCp3Frh6NOKbQpuNee2KMW3nf27g1HKjR4Dv3bw3+jupQKAfHDjDeFmhIsYUSGz2FlfTTS4jV6udbMyxSX7Gk22lh4DcvVoddf+XnM9EGw2lviAKWBsLiAJKQ0nux4/YWbjhx92RAx9CFLBuq8mtGtkYzZ1rR1N2R4kj0dYjaxrcKVmV6THzZxdDiAIWfcrxxHp21alFiSI1WnwfN4GEGA396RAF3NmJEj2/j8N2Lf57K3njbbUsEQcHGuPFsnbb/JC8jE/iexq9gzhqHtMiCiwuOU89BWI5n8c2yPzgwLcuW72630cPJrjtTlEgbd856inQdSRy5Is424mjRpWMxKlFTTe1HQz+q0djeivoZUy00dDvTMoIUcC6x0IUUBpKsj5m7j7QMqyHmlO2exn6IUQB67aarKoxwJ9jj3Y0ZXeUOBJtfi7m1JMbdSxsJwMoBYyc6IiwNWam8EIUsCAfx8Q6UqvA9/OVQEKMhg4HosBcHm70enRaikTP7+OyXWm7TveSzdW9TbuNL2P59sDgL60HDJs0ta2I4zSEjsW+VAujGj8ip0ijHdicsIwt3fHNVSoJ3Pzu9U8fWHM4g2wW2PDbP5d9YNQFPt+/epIcHxC6uOKDOFAk8SfT4CmwuuBrtkfj5ukEnz4wrQ3SuhY2V1wmeoeN4w8MuU200TDcfNoCDSpPnf0fX0MUGPEP3hX/LnyRMDM0+6E5y6GylSs0eb0y0sYBynCaRIGRYb36/NcaXj+EjDMs1uYDrSgmgcL6a1LFDZNJzuUjEeA7Shzz0SRBZh3fI6C9PqFB+0LyDkxziKOZr2uIAhaVy9Z7sAMz3z4taidCj56GlEkwGoIwm+dh8jAN9TjTj/iiVcwP/eS4NbtHkYnWEvkiXtvF1ycjPbUbZD5FhqjVNFbOSzlIU8xpm3y36bpOpqfA1uM9fhZLYGSkv/VgpFgMkevIwoKlLOv/QYT3Y0H7pLh9m0I/rDmlRgScLpgRC5JUUYAYWzqLGxnp/77SwYv0iBmecWKGDOxioQR66hUlzjL/yTQaSoOEp4ChngSd1xEFaEBL+t9L/7C+v3iQey+EKKAFQlN0aEto0yUKyPWXiBAy7q1iS+uWrC8Nx8awOowoCjhKbNkarb7M3F3TNjz+VArlqMkD5uCdVr9NFpboz4IoYMGHTaxhB2amTVrUyOwwockxGhQyFwXkRofJw+yo90Q3yH/op9nx6rZ3PrmN/vgatmtzRVvvpWpzIO38A6d7DfGJSdy+4NMJf5viE5doUDbKa91CkikK0LBw/ptdzV8VrbEZGc5OQVJSqg6t1mIB/iTUgU2hn3ICl9KvfSKd+WfnVtOUJqmiADG2w3dvdp0/spudYW9d19NU2CS07ezS5v/0NtpRBLw+TzKNhgIWokASKnvuNlPkHARAAARAAARAAARAAARAAARAwE0EIApAFAABEAABEAABEAABEAABEAABEAABlxKAKODSilc8RvARBEAABEAABEAABEAABEAABEDAhQQgCkAUAAEQAAEQAAEQAAEQAAEQAAEQAAGXEoAo4NKKd6EAhiKDAAiAAAiAAAiAAAiAAAiAAAgoBCAKQBQAARAAARAAARAAARAAARAAARAAAZcSgCjg0opXxCF8BAEQAAEQAAEQAAEQAAEQAAEQcCEBiAIQBUAABEAABEAABEAABEAABEAABEDApQQgCri04l0ogKHIIAACIAACIAACIAACIAACIAACCgGIAhAFQAAEQAAEQAAEQAAEQAAEQAAEQMClBCAKuLTiFXEIH0EABEAABEAABEAABEAABEAABFxIAKIARAEQAAEQAAEQAAEQAAEQAAEQAAEQcCkBiAIurXgXCmAoMgiAAAiAAAiAAAiAAAiAAAiAgEIAogBEARAAARAAARAAARAAARAAARAAARBwKQGIAi6teEUcwkcQAAEQAAEQAAEQAAEQAAEQAAEXEoAoAFEABEAABEAABEAABEAABEAABEAABFxKAKKASyvehQIYigwCIAACIAACIAACIAACIAACIKAQgCgAUQAEQAAEQAAEQAAEQAAEQAAEQAAEXEoAooBLK14Rh/ARBEAABEAABEAABEAABEAABEDAhQQgCkAUAAEQAAEQAAEQAAEQAAEQAAEQAAGXEoAo4NKKd6EAhiKDAAiAAAiAAAiAAAiAAAiAAAgoBCAKQBQAARAAARAAARAAARAAARAAARAAAZcSgCjg0opXxCF8BAEQAAEQAAEQAAEQAAEQAAEQcCEBiAIQBUAABEAABEAABEAABEAABEAABEDApQQgCri04l0ogKHIIAACIAACIAACIAACIAACIAACCgGIAhAFQAAEQAAEQAAEQAAEQAAEQAAEQMClBCAKuLTiFXEIH0EABEAABEAABEAABEAABEAABFxIAKIARAEQAAEQAAEQAAEQAAEQAAEQAAEQcCkBiAIurXgXCmAoMgiAAAiAAAiAAAiAAAiAAAiAgEIAogBEARAAARAAARAAARAAARAAARAAARBwKQGIAi6teEUcwkcQAAEQAAEQAAEQAAEQAAEQAAEXEoAoAFEABEAABEAABEAABEAABEAABEAABFxKAKKASyvehQIYigwCIAACIAACIAACIAACIAACIKAQgCgAUQAEQAAEQAAEQAAEQAAEQAAEQAAEXEoAooBLK14Rh/ARBEAABEAABEAABEAABEAABEDAhQQgCkAUAAEQAAEQAAEQAAEQAAEQAAEQAAGXEvj/oeK2dghXFbsAAAAASUVORK5CYII=;" vertex="1" parent="WIyWlLk6GJQsqaUBKTNV-1">
          <mxGeometry x="270" y="497.81" width="482" height="36.19" as="geometry" />
        </mxCell>
        <mxCell id="HRl2OaOUrPw1THYx6C_2-16" value="" style="shape=image;verticalLabelPosition=bottom;labelBackgroundColor=default;verticalAlign=top;aspect=fixed;imageAspect=0;image=data:image/png,iVBORw0KGgoAAAANSUhEUgAABtwAAABJCAIAAAAxJhVlAAAgAElEQVR4Ae2d/09Ux/7/33/OJmJi6qpNDG24l2rkfYFgveJHasslF9TqBesXDG8QW3gX5Qbf2Ut7oVyLLbG8eQvUb8Rs8VYIlIASjKlprImEpDEkJhB/2KTJkpjsJ2e+nZk5c/acs5xdQJ+Jac8us3Ne85iZM6/znJnX/EckL4p/IAACIAACIAACIAACIAACIAACIAACIAACIAACIJAzAv+RszvhRiAAAiAAAiAAAiAAAiAAAiAAAiAAAiAAAiAAAiAQyYtClMRCURAAARAAARAAARAAARAAARAAARAAARAAARAAgZwSgCiZU9wQwkEABEAABEAABEAABEAABEAABEAABEAABEAABCBKQpQEARAAARAAARAAARAAARAAARAAARAAARAAARDIKQGIkjnFDRUcBEAABEAABEAABEAABEAABEAABEAABEAABEAAoiRESRAAARAAARAAARAAARAAARAAARAAARAAARAAgZwSgCiZU9xQwUEABEAABEAABEAABEAABEAABEAABEAABEAABCBKQpQEARAAARAAARAAARAAARAAARAAARAAARAAARDIKQGIkjnFDRUcBEAABEAABEAABEAABEAABEAABEAABEAABEAAoiRESRAAARAAARAAARAAARAAARAAARAAARAAARAAgZwSgCiZU9xQwUEABEAABEAABEAABEAABEAABEAABEAABEAABCBKQpQEARAAARAAARAAARAAARAAARAAARAAARAAARDIKQGIkjnFDRUcBEAABEAABEAABEAABEAABEAABEAABEAABEAAoiRESRAAARAAARAAARAAARAAARAAARAAARAAARAAgZwSgCiZU9xQwUEABEAABEAABEAABEAABEAABEAABEAABEAABCBKQpQEARAAARAAARAAARAAARAAARAAARAAARAAARDIKQGIkjnFDRUcBEAABEAABEAABEAABEAABEAABEAABEAABEAAoiRESRAAARAAARAAARAAARAAARAAARAAARAAARAAgZwSgCiZU9xQwUEABEAABEAABEAABEAABEAABEAABEAABEAABCBKQpQEARAAARAAARAAARAAARAAARAAARAAARAAARDIKQGIkjnFDRUcBEAABEAABEAABEAABEAABEAABEAABEAABEAAoiRESRAAARAAARAAARAAARAAARAAARAAARAAARAAgZwSgCiZU9xQwUEABEAABEAABEBg/RF45/CXo/GrDcV58ItAAARyQaD48xuT1y+gx62/h2Euah+lBgEQAAEQEARyIkqWt3YPxfsvHS2Ep7tuCJQ19Q7fHmyvKhFNARdrQ2Dbh1XTPc3TPc2jddut5nGgkn4cP7lTby27946SlDQB+e+J7t0hmP1Zs2RAuK5YBSudZHPVZ+HeYoPltr27w6Kt/Gt+45+NO7a2nayOdzZyLI0TnSe+LguhbeudaP22lsJrWqsQzwSHzQEeGo7fZgMIhvhsUM11npYiOTM3Nzc32Xs8J80m1wVEoUBgnRHY+4+41ePmZrKgS1ZdniR5y/+50WLqdNv/FaMOCfXNtv6TuSjV7TtfjyF41zAdWzv2/tVqAAUD9GNn+Sc5bQ/rxIxs1el6c0tMTT1bZTfc6+PecbnrkevrF0I2IP/jC/87OjlFbzTZW6O05/YHiVQqlVq4GfimOfHohhcs69KYB5lCrbiKltuPn79cIdTIf5IriZ+vqmloAyipvDQ4MtTbWK60B1NKfwlqvmVjydRk/H87qvL9/crQKbx/mANRMjbzkjJcmR86mjmUjIqH25kJ/H2WPKtSqeTCcLV3KzFnghoJhwCX7a5VEM5ceWQapVw77/3pZmf9OPtH5Zt1L0oeOMgNrh/vojZDlLReAKa6RFXWj58pCKctya1lA13nF17rVFVa8s7AesQGKsiqTC3os3t3/RQhYHgI0Fv4f2isyiR/T34M8TmAnPVbFH9+gyiS97//fL+/es+6STADBF57Am8d/fYekRTuXa57K1Q3gImSs/dnpsS/wXOmW/CJUqbZRegs9XTPa+Oq8Qk/Nvurl9fEJBsNb52YkY2ikTzXlVuy5sNTdecd0e/uz8xmQZTcfeF7JkfOzc3cn5ka7fyLUupMRckceXQeoiRkCuW5VDe8IMmRQpg0Kc6VQwtJmuDlbLuSidI8AjwH/tIVn7o/QxxEqx1P3WjZnWlWXvbkQJS8Oc/xJR7E0lGo7p34ZTGRXJ75e7ZKm+7ugtQ6MUPYk42LG3SGIpVKJdLTrvxq6sliIrkUUsvORlk2fJ58aaS3KCn3C6ZdrntRUraZuSwenu6u0j/1tdaOX6Rz2r76bDbaQNbMYA5xFhS3TZ8cOXj9Yv2dY2TJrUx+tddbPjtZNRJrGKC6+Wpz0+p0U1srVSRrv9m3tZBmvmPz/oK3qwq0lBvwY0Hh183HRrsOBVwdzBqJqyiZ2UMj5Irj1eF7iM9GP0WeoRAo7bhFPM7QlRHeSLLU9sLPtrD+6swi9f49vKMNV7T1YXDJ6a/GnrxIJF+xF4PEi6d3v2p6k/cKiPmAgf96J8Q6YqKkj8VZfGmkX1Eye55G4OK/v2/vTTqjyY03PQ/50sg1FiWDmpFVv8sn6k1VFXuHL7JZ0umehnjz3vO7N5kg29u8gr3LhP8M91m0XCZruR6+KMk6+Mxod+0fjGXJVJTMkUfnIUr6limMZX/Nvqy8s0jHy8TPg41sh2tFTUNTrK3VWVJW79YPFobNXTXDTrejlk2hTV7+2HnfUL7JgShZ0j69bMH5fWE4/Z4gpouvtSO4TswItSXpbaUoNrNk1Uny2c2atDdijTsBUTLDPqyTN9DmSyMHDpDEBX8aIYukhj9M+9vXV5T8a90Jaw9vOhczLZmQaiprZmRPlPRSsjInw2b4syCkRvKibE/TzerNht6Ruc25aCTeBvsT4h35eFVlZg+NLMH0PcQ7irk+6ihLWDZQtvsv3SGvTD90lb/JdVTePvKM7SEhLwBr7Yu+fnVR1H73N9Nyj1RqaTr2BuuSxS1D960eODN4dntozw3/oiRfGtmx9yNy97MNDZYPFtun7gYVj2uv4Sm0Iog7Gi7yd+8a6BDxXtJ7jMzg6Sa6JWVL7CKZB23etS0npvKOHNSMrPpdBqTcTv6n/J1fX5QI0z3v1n/rBypM3tq6cktyWrOcmOtNsyBKftD5g/XMSCMPZSpK5sij8xAlfcsUnvA3foKSkd+IS/JiLL1iw0p6/Ob871b6bIyqbFj5oet9/XHh2vgD8c+BKOnb0HWiBq4TM7JT34EaRyQvClEyKLHg6XV50Z8jov8q+H2ljpnFmJLSXfL8CTRZUwODIcqaGcwxzYLAl71XBX9tUq5r/9ehtuT18diUWpq/Nu8w26sqdWjZrCAr1CCOYpDq1H/bDieldRTGD12Hw1MrtLK89V+DZJWkHpFKS/Y6fyxquvJgka3dSy7OY6Wk44kUSu03/kQWKLxKzN/uqrHCXZVUXorPMx34zZaA+VLlNBJD0CoILkry2NZezo/X8BTOc8+1vNsK3u1uZWv3xtsqfayU1A1m+9N5ebPT2p32BzUjm8O6jzo610QUyc7D3WwLy6YD+/aO0HWpXVWfOeON5tIt8WF/rqrVWdHOb7IgSrKYld9/7ooiU1HSNUNnuVbzjYcouZ6qbzXFDOO3sRkySnrsNs4Nsc9vWFr4+LdV2bkdRElH94MoKTU1iJJhPFAcbUwiHMljSyPFRmx/jog+/K/KToiSSo2Q+vLyyzMGzhxTiJKMeagt2VmPa/xNlkTJzB4a6R9Exr/uP3eNRbiOd1Zn3Obxw8wJ/PHCLRqOanLwXKmxjlb5ZWX3v8kirWut4Ya0y7zIue+zXzymMZgSz+It5Xwu1iu4zUYqYO6RGu9YFJtZXLzbqp6v2DRF9u2k1sUbl9HsnHzJN2MOngtp+iGAKMmWRnKRzsv50cW1nPCxu9vxk6fIgXgnBj7cmh9lxqTdW8OWRopwKGskSgY1w9+7wCqf/2l+nl840FZ+Kt8mnxeNbDtwaMJtL1fO3JI0Nq/TP0GUVFoReWJAlHQycfkGomQIY4wdlYCsOrX+M3/D+bxgrEUa04VpBrW8feSX5QQL5plKJRPPH1repFyjVFCbvxGtufJ4icSvSS5OtRdFC1v53GziaT/bUR7IjJL+X6mZiyOmU2LYbHBK/JVmTkqhmp1YnL1Sr/pnnHxZW1wOu5N8ufjodnsZ/6tczADXdowGgdkUcYDJsiKN6cKwobvkdN/UvDgZ6tVK4sXCRJ8WKoi0isRse1H7XRq09VXiSX9dJK/OWqdg3Wfl+bi8i4e2IsvIwvqrEws8DtGrFfry4Ch7RePlsUcLUsN4tZJ8uTAzpKELagZtV34KqLRAh3kh/tWHlJNfsLPDCgUowsE0TnTWDtcVVu3QDZNEyc3Hqw+OxOiWjcaJi4faXMLH5O/e1dd2gnon0z2N4xerv7YcRD1npcWmEWhYcQynnfDjmM3bc/yYUVNXSzMZObJFsScaKa6ookWI1223NvJkaoaWbdqPgUTJLbVWdYgabJ7uqh+PHfui1ObM3h/snTUGhsIX54ZtqqnYawXuZEcPWdmOth3sKN0i72ZijnvanE3S6pYzR6rEOdpTXSdGmkrPpIkO6aMlU7O37dzedubYKD+hm+Z8tsAZ3kgmTCMiNZBzYxonLlZ9USZtOyINcrRu+7b39lwjbX6q42BjfiQvf2d3W73VZjoPx4ps1HnRiL8+xd4l7KZrYJg+suoav/VR4Pmnu38gmwrn7t/qqHYoVj6HeOWZUFjfe1cduJeeTRkHwbKmQeuBrw7x7SyYjp0nHeWJnFHRcvvpEt99m0wszuijDxObfCaO5EULq2LDD54+f7ki4t+lkomlX8a6lVGbju8Lw3l1Vx7ShWB0FCtpub2QII5H4pdB56Yb/0P8Wx/94xaNZ+8ePUpppbyb+/qSnas42VdrU3X5ISVs3n6bklwCeYFGWdvNGTFwJxPzP111oogUHW236o7nTJ2H/laHw0ObnMEhNL3eBHIeWicWl0WDYfavkSipuDoO50vyopnXSr6paBmaFd5X8uXCxJU6ZyUWVsU0t3np2VR/kyNSMHUUpQrlWbEuL9kQjdDEVrh91UFKJub9uqzc/TbF7Oe39mycGz/BbnYS962/F4dS6gCipJ8nRvY8DfvuO7ZaQ7xwS9Rx03Zj3iu93raXOxV+RMlQeOYok0z8rh1bPqkuH247Md7F3L+prvo0wR/f31cqhYnUPMb0nok1LF4j9WJXx8bvenYLzFZZ1lqULGn5P3uASJm8o0ief4/OoWnQAMGvVtJqGsQTsD067lZpj32fMoVVZRmY4deH4Z1dj4CcTCzP/3T1dJGjnQTzYfxrGvRGbIhMP2/H/RbJaTAM4pLlRU1XflqwZTTpd9alVi+ij2zYlZI+2zd3RzQcykfdBy28NLXEW3by9xXpvWV54pKt8dEamv9x7LmU2/ztq4/IZnv23a+DJJBNQDP4vPrzO87zxLtY/ixn0XNST36yzbYterV8t0lqJVbFl7SPL7PyvVqxCsgjgidfWKIq7y3BL3z29kxEybr+X8XroGJz4lf5fYy0isTs3Z/564d11s7slVEWw5VgWZ6wgdBWtHC3/ynP3SaXch4sZSggS598drNSdCr68A1gRjSS57OAwSvFtirQb72lHHdlpPPQeXXnBRcld/3TEEGmvm+f3uRqjhxmciQ9Qpp7QhNtf3IJQkRyCFuU9G3G5s+aSYykntp/7pbKwg99nmguLKbw15coyb1t1TWf7mmWpcAMXhXcf9J454h9SE4mznF+QX+M+riNE9ZZ0lQNbJ7uOdV/wFYD3Q2Q/WPFOS4+cHDUwYGofs7wRlyU/HBrezPRFpUf1nYLnZGJknu+YTZbdx+t29nODt4hxlwsrbA7ps8+5Z7MtkQpneMhsOai5Ft/bh2gSyRnx/rqjccx+xziBb2SllE68yQ9w+ml7v2UtI+7pHy1PCMN8SLASOJBfOKFNKawO6zMDykDNHUJfCbmLq/D2lQq9Wp5wj6OjzoPC3eVUWxh5ApbfEd//6Tf9kwyGeJLG/rIesa5ucmBTz9wCMQCcuALplxMfXfS0QilR2U0UhSzCSetId7mQr2UxakWngNzjhfixhpPPJDnHaOR44NPDKO7lb0j5jVtcrpDGMmLuouSyzOjJuch+fSKuyvFnXvDjRQmvLwhflkjuTqKc2vhsLA/+T9Rxcxrnb9tDNSY0HqKlTP3JO26s65W5m+oCib1owzvM6zLG0TJpdm7wgOUck/+ctVHpEjufuvPAVHSN+SimIV2vX4hlA6+9qKk+0CveBq0H20r+hPbGtxDnQc7muEU8TNvHtlq6nHcTVrrKOQm2zJ5MmTgd7n/pH7ggDZru7mxga4zJTPcnfV8YUGztbbA8tkOnvPobhAlM6jWNRUlx4afSeM1fz4v/aidkeLfo6NP7MTMbZOmkVwY1ldrVcQekPlafmvl/9pj3/AWb1o7ZXW3gGYE8WGsKnaPgKyMgHkZ+DA+NA0/Ooy61I/7LRJdwyDOe7fsdxk9ul8Gze18w4qSvORW0zG5Ms4nuM9909U354lil/j1ZiNfGllYf/XRS1ITvz+O8ZxZDb1KpZILI/UlPJwNOXL6i4rC/qfWD35/3M3TswrwZUbrBN1wsjTVqP2c6ZUrj74QBLjLRQxMPIvHjleQWeXHzBX/LS7pZVF+mnviyZBYKVByuo8lTj7sMjcUzQzPj6znu/V2ZjxjmKZlkxu1T5OiJJcnvjrKfdCKlh/Zi6Uk3ZKWQBePPOgqKxp8wiZYUsmF+OkiRvX5qHiTlJ+SK89/jFUWRSNFTVd+ZuSe9AnI5OLGQvLF04mh3paTzIyy4108sLpcI0HNiPouoGqPZy1knsCHKDkQO9Z3pOCT3ZvFicZHq6upC3Lv5NvyrWWfZqJt79n3Nm2LRvJ377lOw8fEyuUjqnYdqCSZnOqv2CKWRr6/rzxOBBctZ/ku4caUDGYG1x+lPT5cqew8dNZUa8yfDt/T5ZKZY32KwioaYXuUSECf/+SLWwvztxzdt+sT88JDv0rWX48dizfv7dj39v585rAWvvfuNx1UEKxuUwVrYhVzQ2UxVLOWfNz+T5LJRFtprchkx9aOVqoI2zm7v6u4iJK799LWNdVxqK1oM2l1mw6U7RlgYqKqNfP9XBOd1n2nLh48X0Tac8Gua7Q9t+7aRWuciJITXQ3TPbX/Kt3E9iV1NUz0NFz7cMu290rvWE26ul2UJVrov08xPmmEeFOr41T9ViVPH86gwHPbUXs5TqIMzk0OnvuznwNhvYf4mhsLbKYtsXD3cqv1JM+Llh1v7/7x6dLPN2X7+QiYSi7O9n9KnuRFR9uHHrOZSNXlVfywpcd02VdZ29hzerOlqdO8UELBZC6bV2LL5V1KzD8Y6481kfh30UjR0cZ+56jNx/dXyiiWepVKvZyNlbN9Fcmfe0UZeQEDDvHbP7hAT8OYm7t3+fQOqVwi5+AXTAeZuXYu/W8bx+lLReKRWH9a3sVlSrEphDVpVinJFasSXi0/GSIDd3nrCN0eYW8iIe8V1HOz4wxGy5p67/IDZxLTMckw2swMWqG7KElre2XpAT2z0nZL0rhSvFEZbiQZk67/Zpis6OoT0m6Tv43xfT8lp/+PiaoOg1nDSybJC+fS0+FLVmcpa4pTDzklO5biDSexMBKrI0tQrW0l5niOGYiSFHNyeaafdO1yoZPKfpcLsSL29Fgab8qQWzh9wcW8HGZ+qGeMHXcTxk1DFiUlk/wOT0E8DX74TEc5XwIZyS8tZTKlGLINdcSMkVy716YV+fS7Ip811Y+cKT1ftrWM+Sqb/rPI7L1v20c3XzdcrxYbm7acYzLlqa+lLThSdas82atHQ79jsYLrTwy1pub5+ifIgijZ0Gftn7g/8F+u9PhARqUH9uS31RJlINYySe/RcZ+HZLz0cJBIMfbYqj3Ja/h8LVc/opG8ipq23kdURdFESbkVecgUwcwI5MNE8uqGmbuSSjwb66aOKDH77i/Lj4ZkXLGZwD4Mc0vSaRpiyKZpXf6ry6OcHqt6V+mm5MqvxG1ILt5tY6+ihfV8eliS0Qz9lIYgnxk8y+9lSLOKP+UmpmT69s1r15caGI09pB6YQw08zlZEiiUJokM+HyXzwFyAT/7cawln7HYOVc6fGfyAdt3l6qZrABWxUvSclSVlb3JUbPS+a08ssIWWSz9pkxhR1rFfPe13n+EP0Dg8ejurFK+WTZJVx+laVEGem1HioMFagqUFW6UQZBbvEtmLvlpIS5R5+lRi5gtZxOmly1GllLwVOTtD0dUnZG1sYrqdG8az9WlGgAK6m+E0bFXfeIuSvLCqSafOkLVj/JhFaoMQJe81FLA1g+RXPHxM/Te2s/L210QJuuPcCl1Vba1c6zrUqN7RLqY/gcafGhjYjG1FTNiiO7X5xm1p3Zxqtj8zzJDtIqt5ku+ZD+0l8G3+nzai0PEwT2nzpGb4fVUwZ5W/5yaRldkp8IrlvpzjXa4NYCddiuhsM5Yl3i15UxtdutjhOAyUa80TDQXSxnP+ltLTrLXn/UeOkcWVledp6ViDbL53cqeyeb91D+kFtNQi2KtrXRv7FIPsr807amR1VanUnavZjpuSlO+8f/EGFSRnfrj8NzHrYE4sbuQ1xHO1xVre7jF+8a0Gv8W1fb6Fl2bpZJQ8OIpRnkxrCXuilcwPVsb3QInduNX8SOU5kbN5FEulVh59Za2OZDe1Pe/VDPF/+Fv3KKudoY73Q4g9R19s5uJffuBWXvJ9O3W79YVvx8foa8W84qPzIlvzvyJCDqmaBhY9UKTnfpS+rM9+JVAcHtrMDFphWlGShogRbYOH33FOSPNGztuJ4UZpKYlbZHoxtEBePZapO8TvVXLlF+L0vpwVa1HJn0TDS6n7UaKnmYIsmuhRdnanFTlHte04m+NP2Tt7+I5sw/uMqZtzv1qvaz7lLMvxvESKDfxdUd4ioyQw/ur1/LKFnCEwN9rJ11uspphrL0ryDqWWwuhpvEfds/pvypTExdWHlSHb0DD4cB/+/LFiibksBntC/JUvv8vNsG1lB8ctj672n+/ZJp1vIl5lG/VwxPc7vyHztfFjxrWoIpl1wcKPuszluxnzxn8ftij5h6pO4gnMDJ51dwP4QJbSN1nyML7SAiCtJZse9XYliqFnZf62HKLt6F266dH2dqIRPhDoOyTM+xtUMzxkiiBm5AXzYQr7ntJ5bafZSnfIi2bkw7C1cVJW6TUNVlJfigepJlb1hkGcEmb1u/Sjskmi8AotdWKmTa0Iu+qjke2tA8QHvXf1XBguqH6jDSdKsrox9SW92vRaoe37FV9avDpRUvQ0dfr6Kl36J781CenN0LgdPjqXShclmZLXmVBLL/Fv5IYS9Nqjt7Nb6AxNdymkWRldfHaXxRHmCosnHV0LqVeZmyj5/LbScyJ5JdTJ9vR3SZ/X7yIt3fVlRpAChlE1JsjSw4vewlvKcfyE/NCotVFRcqJ5l6xIEjPe7Sdbs21nhd1XXj7Gb8T+dOpfYnusRsOfQGO0UGeSkRl/PUaDS9Z279s1TMp1s8reU6zdwpcZWgF9fWQ+tJcoyZ2/rmP/2qeEetTslD6uUslK4wGn+ROv/WiEtqLxkzslk9hfmerdvEuSDvkPvVvyrmGilt6s0jYiWTmwauqSl7syDob2rLVA+lGcI6lb4leUTNdUtDv6aiGRPL7YM9dhm/7wt8tkqc7c3OS11mJnPbp+Ix7sLgXsI/sSuE7Hq96UmCmPK4++cv61hGlP0vpHe4TS1BaWjzKSBkrsaqQ+dOrjixDI6AYIdlPhprNxXDGM3cvXEP/O+58OsrOH/v3dydUefXPhe2tp1lyaEzyJbW71ywXWH8/IuFiRXy2OyEvsrcaj5cPG8dTimLxZRKWRkvZD0J8btELBXDKD3cvhPEQjrDW6et7M/pzHlLTbp9rRym6TV73k0yvK96zhpRzyPYvzmOKiZBGbNja5zVxBfiVlTlu44X1Gqz7SQ2liQ11Hr9DY67qWqvRrMdOgLolV0kh1+rp/zwO89qYLg+MXwnoVJXlQQsUFchsoS/fds0b/w/+jHrcidQSIki4dRPdn0vgVbN534ozBeZNQiyDsDY5d4S42+G2rr/3PwxIlD305OjN1f4adfTfSeTTdRhZ7QNG8o7wmttfzmbJJRaoF06Pebgm2z8N3RrKKZneUB3Q22hocHtOorTYY3ddS/8pXNTmlFYMZuu8hsjL7MGzwYuuWRGLnRWY+TMrhlqTXNGzgUh05jbG/saverjX7r1xocrhS5dRVWHlyRUrsyKG4/ts4jXI+NzczdT/+ZZhnYG40UZJ7VzS8jhVzR/rH1rdy75/VCv/IHDXhaa1SlMzjazalmXy2JVxfFM3ak2mdrd7zC6n3mUrJ5WLXVLdXgwj4bKCGZB69nbVIj5ZNGitLk85m0fRpecVHnQx9SEmzAVp6u5+4Ps7KW7tvzz5ZWE44GoZ7th5mBCmgbaGBuaNvryKNweFw5rbpQNmu7jPWWTckWAz5L43/qM4qU83IpIDoOte2D6vIxDUN+iNlawWjYTGAFF9TBuLmd8pphMykWqihy9QMvmWbiFx2KEnVAHqvdEqTKb1moftHhtSVksicLwO09iB31Q7X7TnLdi47K5p+o1eWuw2RbTu3nz1SPtBaazcMHv/RZJgfUXL7v+hmahpm1GoP9j8Wt8hYp54tuWgfiSbpsmLxQCVpkMdi9pZ23xxogxRWMUtEtEejKOm3TzH4/tq8o6Z8F0G0lhAuDnczRXLu1oU/Okxya3Xke30g0xKzR6hx4kq9ER8BuZ6i/rWFxgmRBBSWsxjlRXoh8NnBH7n+4i8xKUJJ5aXBiYcL1lk3YkBhA7Gw0N/wwW/KC7iqIUkZUbIAACAASURBVH4HW1FlbeQ+LIqcyYVPUZKvMpA2oVt8+IILsfKR1jurFOFruRrG0ElDs9yMWaOS9oIF8gdcE7t65NxOPuILR0W2KpvXbKWk9v7Gl3bq6l56epKdTKB3KQ5fnjnRwH+SgShpqmvPZiCiwycXbmrLorUHyJvy8fUTJf16GmKlpL0px6r0iiN0IplvbuBNlHdVW2h7k7dv0yP42uoOWmfd2H4XdcgVx4mtlGzdwyLYMJ4F+uIDA+dI8YFDRCBuZsdCmtJI9fKm9Fl/RQ5LlGQzDXNzc7P37926nH5W0tU78l6lmN6j030eUdfOZ77zG5HY9S1eIPWQKQKYERErJX35MCxnH8ue0o/Cq/RhRBdLfxeRzL5Ig53wZ4Zp85RcwnKdr2V1V9rQfWuMKeNzc5OXPxZ1uvqLjSZKsjcNl+319Guu/esdUvO0Vi1KCo+cx0zk6zjkjTBW73LtOWLhgHC7mc1py6e9AGTYCDx6O2vcXi3bSsaeLOlsFk1ce0/QyaxSlCy8NEuPWTfaIr35BDMjSAHth0KG9SIexx4XnlJOdLvp1Boes08IMcRgT1FyouFdag+T6oioR8QgnqH0jWn/L6HhT6DxowZmbkbBn0aoqV2V53mgRiNqP2YYf+j1pW9RMhrZVvDuF80nyMnRnHPXiYHqtx0LWmlj86tkFVdUkn09PE+p7rRTdHhZ/IiSLI1bq7C+V4MGsMw9W3L6ZmP4uV8OLMip6AveomSAPsVKl95418eF7yK45pDR80dZKRlkawZzcUwTb5aFbNrZpFxodnqMOI5hSx/leYs1Ck+BEls7iE3h4fngkqEoyWzguRj/n36IL67/7h5dKJG7lZI8qnLKFFPScWiMRyWKOnJdvEBbtdMR1wZuu/GbXm9cE/O2Ia/BtLOyd9znfKVkhAdMN8aUXBrXQvo4+SilsHuWo9fYf7IDGUmSpeYqp68v18R8DkCaQpDvayuSqzy/0TbPpfgbKMFrJkoG8TRYQOppU0zJiYZ3DXssWHWzsfJNFiVrjtUqXqLi0SmiJA/FbowpeSwmbfTWeo1QJLWQOFoyfHQhEJYoSR6h7/zxo3O9P9y39jiMf1vlckd7IOMTovLjl42Y0qYT+a9CmnDx6PQ3d/Fb59Dv/EYkNo3a6jM8/cjlLq0Yb8pOhvDlw7A9r5JooBpmM0/v+jrHaFe3JC0NZz5u9rDvjQQE+UjeUebcGmNKKuEHnTf6uPue1fQmhzoOF/9BytOZMpNvNpooWc0CR7p0FQUBqxXRITXnafWiZB6P1EMDirPIg859Z64d2NnzjZGwQq91K0OP3s5IerVsKxkLHOnjhZOXV7i/OhnaLaUHQZAOzB36lB3KnZbC2Z+1bD3MCFJApQVmpeLY09Cgxci323S+iZ4ucmrgw7fFMSn2dlchxBCDPUVJsYiSxQ3sEavJ5Jt6XfsTaPyogZmawR1f4rSt95WSoi3t2Hx0X+nXrbXinEQXy/0pWfzQGHGiER9f0yiPaf4kKp2FJRJNhWcrErhceLTkSF5puTM0kp05WylZ9d8Cl/+9z7RBir7gIUoG61PMQn9t3i4OK4W/qrSL7MI2gwR2TMm5f38bVkxJP+MILUL6EZCtlJTGGn2UFyRXvVKSu7DijBQOUx86PYYPzcL0BfSqx3cOfxluTMlzLDxQj9cGnHoWPtJSUZWzGhOPvhIH0zFEvqubx1Gywz1zyFY9Mnf/+W1xcLk2cNuJTQ69a2IuSgo/xM6H8mf2516UzOPhI4lWbS3O5ftjkr/F9TMV+SuZ5C/pBWHN6St6ELyYG1aT8eWZPMYOdw6lXsabJasRxf3W/GrRAUU0VUM+UTF/bMmv+tZC1TwpQ27G65uAniEwN3ppdwhlXOvt2wE9jferacRn6xjoCWnnzXRH+Sf2WXPONvCmi5JcZ2y+17TrKD+60Oo1Zs/q3T563J8V/93ay8K9yobrVVvc+poQl+Mnd7rMiDvrBd/IBEIVJcnDYXfHLUsaut93yvVZofkesj2mEVPOx/Sot5uH7vOInJ1Dv/MbkdjLBj4SiTgktgHU1ABmWDcN4MOwnL3H1rys+jCiRvzbw36SBjvlL4Jm6h5dcnGkSdzXdHH0WxI+6EaLezBTUcUZXGw0UTLPv4DN52mzKEqKEKdWiG4W7tRwbpFrzzE4xyLakbTpLIN69f6J/mZlanxp3UpxCzuqurdzqb0n6GRWJUqKXUh6j3L252BmBCmgGaNgFd6F2eEQ+RcMEN3NebSIUfJzFyUdahQ7vE+ZfdWHCjcI/gQao4X6LTIyo6aObAXqqmrbpxx6o2dO7PdlhltJ033PfGjTLmlRfS4XO7acPXOCLEVUgpdz+30pWR/RwJqG84gcdW2XIs2fhKn89MzmQvdFDSKxdOHRkiN5fHGrkRg/o7z8E9taXxwsaMFEyWB9ilWKvzbPa1Bg8V0Eu9Tit6u/sE/fnhq59FG6oEX8XuldWHHsjI+zLNKNgHwWUIpY5Op2r1aUZBuWlQNAaDXpQ6fHKKZbmK6AaWtz+wfnrrFgkuGdvv1B5w/Wm83c0AVelUYbWmkIqsSzx/MvyaEr1rHaK4mFqSv1QjG0f+jpEPN78chWCze10FRWgi+olCbP8rJmJkWZJDctYlWQEs6eVVPaKG+bx4JEpxaGXTwWZn/ORUn2npBcfPLLcuIVW0SbTCw/ud1Ozsu2i0AAOh0bLQH/KGKX3zBUFjs6Ug6tQFu4Y4WjiP/oT5TkO4cclVv2BTuxSjucircKbrbjqZiNBG+9V3f2YsfZo8Vv+bhd9hLTor3/5ajVGae+O+nDGE8aayxKBvM03qNbWGoHTlbFu1ggoKnO2uEj777v0R7YWPnGrpRkO7IvllZooEyeFT2mZqL1YF/bKb64smG07WDbbkPAbtoI3/+wigqX8bq3/R58p1myRh/zK0+2dLScqtzhozdlu2uHL0rmfdw7bj0t0sSD1n0Pm4Pn2JHeo9N9HvEscg797PXZMZpEipicp47aalPRfS31r3xaThmPSBmdZkTyAvkw/MQejzWD0YiIzukY5iwmrj6MYUI0rUTrWV8aGS5/mWYELcPYyZMrz395ukSPj7QmmxNLv8RbPM9Y+5ycxpZ2ia5oDxlcrCdRkq+C5LuhdcqkeNzRSS4M6zHU9fR6h6TtW1SS20pJX2bwe/GDpZZ+6qVeu3rEDU3m1oH5oexyuy9iz4KsB9nx6O2sgHxZx+KIfT44L7t4wDGSKWe4WUeL1N4TdDKrEiVZicShOtTOktN9j2mnkyY9ApoRoIAOOIJSyBcmh0O6BVORhj9UqmBbwbvfdJBNu2J1GDHYTZSsoKcVKwIWy9llsZ5yO8ke8r0/gYavgqxuSzc9HtgMftx2w7UK63AbJlD2nHA7lsefGWnLa24MzIc2Smw6MWcOrN4b+vc5b72pnZ5S3bpLDRikpGRia0w7yXpTVXU1dT1NhrFVkPdOvp3GQpZzj+uB5ubferTkSF50yxcXWaPVw//nswOLVMN8K3rBRMlgfYoVli3zPPW1GirLjMKubt9FsH+i1LJX/p6J3/pz6wBVwGbH+ur3e6VP78LawQe9xzU+pDpTCk1E9hD0UV4UfLWipIsXWN5+9zeqymW4fTuS2RCff7qbbteamxz49AM/AopXlbGW87c+Us3pdZA2qiJpY6tr2zO9EpgTN/5EjzI3nL7NDoxWZnlZMxPhbqwyFjWNLHCd1JcoyV5ODHIzbzzMfh+iZHHz4OTs3Nzs5Pefe/YRMwG5moafWUKk5Kik/4lLE+WlkHLmRX7pPH07/pyon8qBjcyVWrajTOZFC+vj83zZpvISqPnV4u483uiTfkUJrbnC/bFfB/3Gkdxe13mH7FX89+XD4a7OONQVp5EQ5u5712D2EjNoxRdGyAzB9QuhdPDsiZLhexpMwTQehZe+F/CNEWGLkuF2bakzehRHTunL76Le+7SObsuZkzQcp7yAgE6sup9F6bDtUBV1CxtGjmwPNtnsyEo8GZSL/ef+lwxAkzdaVntom3rH7ecG+Fkc9y7XeXSorHft6LoSJfkquTSTxOk9Ov3NXTRaw9DP1umnlIGgKDazxGbdciRKBvRhuGeyMn9DO2VXbWZ5UZ4ykA+z1qIkXcIl1DClS+oFFJXLLt4gUZLL3qnk8kx/a6XLJDZfXZhKJRcfDXX9rYp6PBU1DV39Pz1dWpxq53z11xXNeXITJX2awe/C55lXiMNmFO9YB14ab7Wnu4uarjyk7vjKkz7FaeMOcSq5+Hg4doZxKK87HRuc+GX5+U8xvYlwS4J9z/xO8Wbl0hC5Hpd8Mdv/6VHDcgbr7keZxp9KJZ6NdbfV0WIWVp1puRyfWUg8GRKZB1QD3Rc7GGYV2AqUVOLnwUZL7K+oid18tMhfVxRfP6gZ/gsoSprtCw8ph52aPd1RfrbAmgLNz3/7/MnDdiRBkyg5fqZA2ui9qaq6iqYfOaJs6+DaU/N4W/n5os2FtKQ7Nu8vejd25tj1I9tdG6Q/UZLvOml27C9WWnggM7YVsaWRkpbKV/Z1Vn1mPNiREfYww7Wwrg3Apyj59v+cLP3vfW/vL9gsZqcL39sZa6W78s2KLWfSMFL37iEXSXc/FZp7Gq5Xbyd1t+lQ2Z6BDrY2wSWmJDtZe7pHjwagFH9n4TV6jFLPiYHqnR/xnUSF+Vs/+XDvcMeh80YmHi3ZqnSxQWmCNDkCZNOhstJhuhGps/K8Uljfil4wUTJYn+JkmJQ5Hats8zinSG7evotgRBrSl7YQdv9WR3Vatz69CxuN5PEZOGvcfjwcY2NE2fH27tuPn/+sHAHJ902T0YQOOuV1saGnLF7wy1kxxKeLmrRaUZIv4ksu3r1kDXyFVa3dPy6I9Wspe0uR7qBrU2u6HyL2HzAU3kP8Wx/94xZ9v5oZ7a4NO4hP7XfkpTDdLjDudK08/6m3paHpdENTTdrpdMObCe8OciO3rkXQleTyo6Eukm1J5ae9E0z5XZkfkveG65VS1jQ488Ie4tXXG9omV570S36LrSlr72MllSetctF/V35m85iProgvWYtV7a+mwZWIkjRyYdVbbplX8/LpcIzc96RkuQGgf1EyWjm0QBXF5Ave+4qONl6ees6+XRiWZ535ysrkb2PtloNd0dg/u8QVyZR21iL1JH9/2s9ccevhU9Y2xnKWZ9zzojX9TynZ5LN4jNMW2K2L4xUqYfIoE8c6zc1N9p02JDDA8fUMtE+NmLPOjDqUNp/sJWYlYvsx577/3M/idO8CZk+UjITuabAMO6tjZVv3F2yR3R5TpWwqs9LQf+9+TU/Yi5WfEV9y38P0W3/tJ+Su7e+mjjplgmNav4sufpzuqf1m3xbLNdqx+WhF+U2xR7tHFiWZNxJvKDxKWJUpjpNuZM2Rw2SiuvFO3c4KwVa6SP9zP/D/cpmEp6NP0I6Ax+s5cMl3pNIJyXhu7kaL/CfHdda7dt6aipIvphrth7O1TIe6Uslfr7q80Yt9Bill/snmpvs8ouWYhn52vHWKuVIllZfi82QYYMFJlKlEtU49ZIogZjCH0K8Pw9cSplKplecPb8bYwFRR09Y78nDxka1pBPVhNPHBLq9B03AA9z1h6bVSkoFNPBnqIuMv90LtO9qGicplFxtVlGRl5lq4/n+DThzJsz0nNbmWuKRldFFykNS00gGF+ssANUlow66ipE8zeJ3xCWHLDv2IG5qG9RxqKD3Ekxu98ny0XX8uFIm1GDyV9P+EOfoSNyZtk2KNXspNuRRklEx4PFQlaSqlJT5+9ZGY99BSplJS2H6tQ+rPFO11Ls0OLFMHjs28dNzbWpO8+JzYJvXnoGZEI34L6Ksi9E6uAHfPgTuC5vNJptU4j3+lu3SViNfN0z31w60kcI9JlKRHlEyRw/t4oJnGO4YgMlvbm+vdzjOJH9sqF4c7VS42q2bwH4rgfeqv9MT+zdj+L7o+tPPQWRlv/p6blE/HXn0JnpXMpxlBa9OnKMnFLL0GrUocIIs9OS7JgJ0FA7YzatNT4jy6pJm6WEUdWdNKSSs+UdxgSbOWuLis/I4pGWktLgdo+hAlrZWtbqHcOw/HiiQCVsX5VvSCiZKRQH1K1I7Lr9JHZfVdBLk9Z+N6v9gyfKtDXQsWdIgvik1IU0TKk1r3St1PmEk87Vd3SOijvMC+WlHSzQ1ILf1G3Q8xn+cxihksDDTE7+24RRdzTQ6eC3ctCWNV2f1vz3dCl7GVbeKeHW5TtCTTm4lr4xThBZUmYX1YWRqPad4RX+Khpl2aHXlI3nKUhkRHeZZS8bteLT+6oi1/UJw0NXf6SVS3UhC2zpTw+75F+ZP2UPLzUUiHTgOsTdw/9p5WpuqZzZJjk8aAkvZpOgvuyDu5PHFJmReXpxDk1EsP4o8IZuVNVX4OvCKH1AvvfOnxFbW3erigqZQqK/PicLXOwuwlHfrhLNKw7dJUuRjx0ESyl5jaU949ZhkyM3gupNWgWRQl81y8iMw9DRcHY7qn2drEXVdYJR9LyCeM3bzQ6WbtuSFq3P9FuF3b/33VlC5YFL/LJc14czVxxmRR0sWntXw2axN3R+kWaTkkc0JcIfc0K9XNe6sYgn1dnKYr9UkX9JAOVTJet2PhWUnGk9/9La0x2e7akbUVJelDnESCToqoIM5gvvKTXH7us2tZh9F9HlE1xqFf7HGRc038OnjlgXPU9jo4V1EeApkRzIeJ5EULL/FJO9lucq2MgFZKtyN2nT6MJj7YzdikaYi/+hnrWRqHsfwL2TsSk8H8j/b/rU3cY92msDyslt8oUZJMscafvEiInkNIyZ2BVVJhfe/dX5YTwvt5tZJ8ufjox16yRI6l0V8GfIuS/s0glcQDXaVWHn0h2pB8wdsKfxxYhfKo+JLTX40pHJIricXHdy9Lay3TPmTFM0K+8PAIld4u21/RcvvpUkJaj2BtMVKWq5C7VLQMzc6/XLHrLplYejY7TJaZcDO0Dqk/U6iFkpOtpbetMnfgovYRqVUIP562BPdsPc2g9/VTQNtCXuTwvgkkSuZFI4c+PDgSa6CBY6a6Toyc2VNbwKNfqwJffsHOtrqD1y/Wj7OVblYM7Hjz3vNpAs2U7ulrOyHST3XVx1vLO8rIVK1U5IxESUsQrJKMZ16RajNt/+97m7H5s2Z25s83ji20fE93s7SCUq44v2YE6Yw+RcntbWeq451SjRDv/PpJUokSYf3WO7a2nTk2yqMyUXS675i/84vmWl53jeMXq7ortuZH2XJIxd+VbkSOAhe/YoqnIfGOrefrquKdrOFN9zSOx44N1BXWuM3J+xMlrdW+u3d93SoMaJxwvqswa30regFFyUB9Sq6X9/eVDl+s5yGcKLoNIkpGI3nW4SqT1y8UyyWyj0qznRn1yjBqkyVXU/Py+O46Dpac7lNSioe53D2zuVLSaks1V6bUEIpUfaOjklCpPIYP3Q9hGAMM8cWf35j8oSvkjatSbf7x8xsz1rvbZN8ptyVaJafFUrvfifAkOzNWxSt7l4xvJlrFKR/L20ceLtruXHIlsaALnTx9yem+2efCG+HxFk2QaTWlUpKpyd8T8w9umqImcSdNbcTSJ1Hd0iMxLxrZXkcDe6WP7cWNV38rVQFLUN7FNrVRde931elKpdSYBsxmybHxyL+sLf5o0fau3WlYm+KvPLBrJPHi6YilO+tN3TLb+SpreeMLM0OGOJgeLqibKJkXLb44Qpqox2mzfjkL8turL133vXs0e4nzopHdF74nJYx/WRm4FKI46kU2RUlrRV64nsaW8010qrthnMyLq8Nl87Q8c5wLUTLkrq1WTYAq9uN3bXtvV1/bCb6SQMiL1BGSRclIfuneO8TJp4sPxlVHcbqHRTci1uZElIy+xc7NmPNczxgAmmX//pN9ROWfHes+6jau8QdmVrs2gbkm27cLq2L9Pz22PC5JKkm8eHr3qyaDau98kkvjnzXE2wddmAYCUky3ob+sLS5cqeTLhYk+y4DC24vWHWSxLC97omQwH4Y1tvLW/p8WZPXDzRGN+PVhAmoahKoYedOO9V4+jMK5IsYnKel8ra3b0EpPEyBxo4qSDCXv86/zRx6vZ3HMJUSOawcO+JB9E2CijCDwmhPwKUri4fAmE/Ctq77mneVNbgM5LHslO+7m3rdG6ZOv4EvMfKGsiGQbe6nq90zZg59D4926gKv3H65th78hqtbcZO9RN0t8fs+WcjiPfymsivG4mS4naK+hg61N9mfJku30qNm5uVsdaeNI+ES93pK9c/YaCZo5bu6AmbXYLIuSYTLkK/g69h2XV0Ra0ueWs3XHqNw2cCAzDhn/KryuHSarjIsj9rs0XPtQXhFpZVhYtOsa3QXfsfejHFvL53XGvz2cpafHOsh2TUTJVTSVHLeBrN9uY/ow2cLCQiQlF0a0FZFFR9tvs0gvrrtyIUqu735VwmYG1JUCqs0QJbPVtVTOuAsIbAACECXRbT0JQJT0RIQEYRI41BWnG92+cZ4JwE+i/C1uWF4hnT4Zpj0hvEbmRpTcf+mOrx2C3nDYgQCJmUumUSzjQ9tDIGmyR2SbE1Hyrfrv6ErJW38v9iYpbNsgF8V8qXKv55KuICXaOKLkThZIRzuYkRW2gB7MrceKCYIiozYTXtfOuqlpe6i4+ycnyVpU/ZBDBofFpjRtSBI5ZOOi9B9s6Ak1XGxGNe4PY0YQsiBKFtOhZ+Zqw3or7PqzZ4P6MFlqkOzcc5d1l1efkGlml79G2bBy5x9hRoCV+lRuTt/OEtk1zrbseNfIMxITgRyiYvLXqYUQJde4ptbfIxJA3lwCECXRHz0JQJT0RIQE4RLgyojzGOIStuuWn/lj37e8tf/BMt0ZNn9DPpFmPTzesy9Kbv/g7FWyQ9DP2c2S220DlL9kUVDFSX2CoX0ygClsjki2RhfZFyV3/PUft6gk6bKS18xTZruOr986+i0968P7jOCApdg4omSURdCeaN2jhXnJL3i3u42E3+mq+swtAkwWWn64XTtgxWWrPfMAUPxIHJvbppoPK++RaOB6qB87TTaseuvP5/po658J+/TtdcKcm5EFUTLKotDOjfWeKH4d14+H2PY2qA8TIgE5K77R++Xj/iZl74u1J4OJWvJuffu3O2ovx8lYfK87tDAj2oMFoqSNW0Pj/pHXKA+4sPTwqsvGbZo5RMkMIOMnIPB6EmB601RXPY2dZP33TAH3XdwfO68nDZRXECjoI7G05IhauX1DEJbg4o0k8M7hy0xi6zulPG2UOO483KEdpiqV8nKBlNxyxTaromTrwBTZb2utkrwf/9K5vDSDIqvnO9FzCX6Xg3Qv3m3VTqTJ4C5h/ySbouShL0dnqBxphTzN0kFPYQMJNJTvvUD11slrrXrQ3kD5mBIzUXL2/syU+Dd4zpQyV13SHbV8kJ3tGokQ5z21X5dtzpHl2eja7gXPUaGoAfmF0kGIjdz/FOG/m8eb9xzKlamfDs5MkTXm1uFOo52hrhFe+/ZsVWt15x3R7+7P0NPqrl8I07btdb3i8PKZ+zNTo51/yVX15bTdhlCojenDhFBwY3urucH2aFsilsGjc5zA/Jeu+NR9eyzO5uwgRMkMap2Lkq9WrPjfykEuxtwgShqx4EsQeBMJMFFSOdMwhMMijWMPvtxABAznrUOU3Gi+7wZqbyZT3zncM3bvm9M7HNgLq2LDD6yI73JA9OTviecPx7rVyXZTtmvynM+qKHnhe+tdejI+dPns//tDeEWuaLw8Zp1FI84loOebv1iYGYpVKkdvrwlS002zKUpSWW3m3kjf3+v+GNKZ1OFVlomGo+N43e6dQx0j94Ycx4gFzsdgDBMlufJD/h/qAcdhGGnzKSwq7G46NmofkWcdCT1+sfrr6p0HtECThsLa+azWqix17aza7D/zHVs+qS5XzrS0TlA8MdK093zRJuno7fB4uthGItPNjI9+332uPN8lzWqrcm2z/VicgWZ3wXBFSev4x49bLo/cY/LuZG/N2hZ5Xd99A/owWeRZ1tR79+FiQj1ML5lYnn9ws73KMfdZ8y2NnD03NXbr8oWqbHZYiJJZrPWsP9Y39iMb5EEABEAABEAABEAABEAABEAABEAABEAABN5QAhAl39CKh2AKAiAAAiAAAiAAAiAAAiAAAiAAAiAAAiAAAmtFAKIkREkQAAEQAAEQAAEQAAEQAAEQAAEQAAEQAAEQAIGcEoAomVPca6U9474gAAIgAAIgAAIgAAIgAAIgAAIgAAIgAAIgsH4IQJSEKAkCIAACIAACIAACIAACIAACIAACIAACIAACIJBTAhAlc4p7/ajRsAQEQAAEQAAEQAAEQAAEQAAEQAAEQAAEQAAE1ooAREmIkiAAAiAAAiAAAiAAAiAAAiAAAiAAAiAAAiAAAjklAFEyp7jXSnvGfUEABEAABEAABEAABEAABEAABEAABEAABEBg/RCAKAlREgRAAARAAARAAARAAARAAARAAARAAARAAARAIKcEIErmFPf6UaNhCQiAAAiAAAiAAAiAAAiAAAiAAAiAAAiAAAisFQGIkhAlQQAEQAAEQAAEQAAEQAAEQAAEQAAEQAAEQAAEckoAomROca+V9oz7ggAIgAAIgAAIgAAIgAAIgAAIgAAIgAAIgMD6IQBREqIkCIAACIAACIAACIAACIAACIAACIAACIAACIBATglAlMwp7vWjRsMSEAABEAABEAABEAABEAABEAABEAABEAABEFgrAhAlIUqCAAiAAAiAAAiAAAiAAAiAAAiAAAiAAAiAAAjklABEyZziXivtGfcFARAAARAAARAAARAAARAAARAAARAAARAAgfVDAKIkREkQAAEQAAEQAAEQAAEQAAEQAAEQAAEQAAEQAIGcEoAomVPc60eNhiUgAAIgAAIgAAIgAAIgAAIgAAIgAAIgAAIgsFYEIEpClAQBEAABEAABEAAByj90wAAAAPBJREFUEAABEAABEAABEAABEAABEMgpAYiSOcW9Vtoz7gsCIAACIAACIAACIAACIAACIAACIAACIAAC64cAREmIkiAAAiAAAiAAAiAAAiAAAiAAAiAAAiAAAiAAAjklAFEyp7jXjxoNS0AABEAABEAABEAABEAABEAABEAABEAABEBgrQhAlIQoCQIgAAIgAAIgAAIgAAIgAAIgAAIgAAIgAAIgkFMCECVzinuttGfcFwRAAARAAARAAARAAARAAARAAARAAARAAATWDwGIkhAlQQAEQAAEQAAEQAAEQAAEQAAEQAAEQAAEQAAEckrg/wMKT7KfS4M0eAAAAABJRU5ErkJggg==;" vertex="1" parent="WIyWlLk6GJQsqaUBKTNV-1">
          <mxGeometry x="270" y="455.8" width="746" height="31.01" as="geometry" />
        </mxCell>
      </root>
    </mxGraphModel>
  </diagram>
</mxfile>
